<svg version="1.1" id="Layer_1" xmlns="http://www.w3.org/2000/svg" xmlns:xlink="http://www.w3.org/1999/xlink" x="0px" y="0px"
	 width="100%" viewBox="0 0 439 662" enable-background="new 0 0 439 662" xml:space="preserve">
<path fill="#EF5656" opacity="1.000000" stroke="none" 
	d="
M410.992493,16.002653 
	C413.650909,24.545448 416.491058,33.036716 418.930969,41.641472 
	C424.515717,61.336990 429.963745,81.071907 435.350525,100.822693 
	C438.357788,111.848999 435.707550,122.350296 431.351105,132.395111 
	C423.222687,151.137299 409.049866,163.215042 389.351685,168.550980 
	C385.560394,169.577972 383.942413,171.141190 383.552460,175.160538 
	C380.868073,202.829712 377.956726,230.477051 375.069061,258.126251 
	C372.164734,285.934601 369.151459,313.731750 366.334961,341.548889 
	C365.997345,344.883331 364.826721,346.247772 361.444336,346.241455 
	C328.286896,346.179565 295.129364,346.205719 261.971832,346.186401 
	C261.164185,346.185944 260.356659,345.949280 258.482574,345.655731 
	C259.693695,343.147125 260.521393,340.935608 261.746887,338.972412 
	C272.254608,322.139526 272.276123,322.157318 291.923340,322.177460 
	C307.752441,322.193695 323.582642,322.099274 339.409790,322.279938 
	C343.136810,322.322479 344.622894,321.333374 345.018585,317.377655 
	C349.243500,275.142395 353.661957,232.926453 358.039337,190.706482 
	C358.657013,184.748840 359.476135,178.807220 359.882904,172.836441 
	C359.970245,171.554581 359.000427,169.432938 357.958405,168.977448 
	C353.889984,167.199081 349.597046,165.934296 344.444611,164.152466 
	C343.637604,171.895111 342.899780,179.066574 342.141052,186.235809 
	C340.109772,205.429276 338.370209,224.660202 335.924530,243.800827 
	C334.360352,256.042542 324.776428,264.037323 312.424316,264.079102 
	C279.100372,264.191803 245.775696,264.075684 212.451462,264.138062 
	C209.160400,264.144226 207.386566,263.297516 206.511124,259.737518 
	C204.974197,253.487610 202.736725,247.409973 200.566345,240.544220 
	C202.725800,240.371109 204.595978,240.091888 206.466354,240.090469 
	C239.457504,240.065536 272.448669,240.076965 305.439819,240.074158 
	C312.536621,240.073563 312.633514,240.072311 313.367065,233.116974 
	C316.195068,206.303452 318.962311,179.483475 321.727661,152.663391 
	C321.931152,150.689804 321.939545,148.696121 322.072601,146.032211 
	C287.178528,179.752701 252.968414,179.264618 218.560379,145.485779 
	C205.656189,161.105667 188.968094,170.643921 168.044739,170.702850 
	C147.250992,170.761429 130.252609,161.862335 116.926826,145.621277 
	C116.537743,145.911789 116.148651,146.202316 115.759567,146.492828 
	C116.357094,152.336731 116.960068,158.180099 117.550484,164.024719 
	C118.052299,168.992355 118.474091,173.969147 119.056015,178.927246 
	C119.455666,182.332428 118.011360,183.324600 114.763351,183.037521 
	C109.626923,182.583496 104.465813,182.335464 99.309937,182.203140 
	C96.366516,182.127609 95.178505,180.765152 94.949257,177.955826 
	C94.600632,173.683823 94.043747,169.428802 93.486992,164.362961 
	C88.440247,166.073685 83.855255,167.364014 79.552116,169.285522 
	C78.565590,169.726044 78.096977,172.356583 78.159660,173.948929 
	C78.556725,184.035614 78.620819,184.008408 69.018997,186.866058 
	C64.902168,188.091293 60.822575,189.441635 56.206211,190.899246 
	C55.496174,184.731812 55.035252,178.948593 54.039268,173.259033 
	C53.771751,171.730850 52.109482,169.626343 50.692165,169.241241 
	C23.297947,161.797714 7.364613,143.858566 1.336613,116.181091 
	C1.000000,112.307091 1.000000,108.614182 1.325947,104.295914 
	C5.477341,90.464539 9.302788,77.258522 13.479380,63.966820 
	C14.198041,63.379646 14.748221,62.929337 14.905258,62.368866 
	C16.800041,55.606323 18.735620,48.852261 20.440699,42.040947 
	C21.139055,39.251209 21.306665,36.328609 21.653465,33.346069 
	C21.591209,33.225693 21.733463,32.994980 22.060093,32.816841 
	C24.132860,27.635777 28.334330,23.310190 26.566450,17.247498 
	C26.528160,17.146549 26.629164,16.955698 26.983704,16.858807 
	C29.283564,13.619445 34.153725,12.528069 33.733891,7.845211 
	C33.773949,7.991518 33.721928,7.693339 34.100418,7.784777 
	C35.277626,7.197310 36.076347,6.518407 36.910568,5.855714 
	C36.946064,5.871925 36.886211,5.922018 37.300674,5.950715 
	C53.626087,0.996228 70.005692,3.137112 86.183395,3.094177 
	C162.793564,2.890856 239.404572,3.002141 316.015289,3.002804 
	C339.331604,3.003006 362.649384,2.877909 385.962677,3.144458 
	C389.653107,3.186652 393.323181,5.005278 396.765137,6.017641 
	C396.254059,6.145955 395.980499,6.259205 395.706970,6.372458 
	C395.792847,6.494374 395.878754,6.616288 395.964661,6.738200 
	C396.309204,6.491292 396.653717,6.244387 397.386536,6.004828 
	C399.299500,6.198027 400.824188,6.383879 402.348846,6.569731 
	C402.348846,6.569730 402.366730,6.900722 402.342712,7.109301 
	C403.301270,7.799096 404.283875,8.280311 405.266449,8.761530 
	C405.266449,8.761535 405.050720,8.912018 405.089783,9.180975 
	C406.551636,10.870206 407.974457,12.290480 409.397278,13.710745 
	C409.397278,13.710735 409.120544,13.760634 409.150543,14.053728 
	C409.784515,14.898766 410.388489,15.450709 410.992493,16.002653 
M300.697205,134.916107 
	C301.494385,133.639832 302.291565,132.363541 303.747375,130.924026 
	C307.493835,127.700333 310.664673,123.884903 310.761627,118.824783 
	C310.930084,110.034081 310.716797,101.219086 310.235382,92.437744 
	C309.765411,83.865494 308.087738,75.309456 308.254852,66.772034 
	C308.347229,62.054050 307.372559,57.790134 306.765533,53.296242 
	C305.726166,45.601486 305.663849,37.779041 304.876038,30.042309 
	C304.722687,28.536236 303.132355,27.176485 302.039032,24.966225 
	C300.728607,24.314489 299.439178,23.155781 298.104065,23.100477 
	C292.865875,22.883499 287.613342,23.015558 282.366119,23.015905 
	C270.369965,23.016697 258.373444,22.965361 246.377838,23.047260 
	C242.764221,23.071932 239.007034,24.192955 235.578171,23.504370 
	C231.374268,22.660143 229.922775,24.588860 229.293442,27.804918 
	C228.597321,31.362019 228.088791,35.017605 228.064865,38.634048 
	C227.944702,56.794121 228.141907,74.956726 227.962387,93.115822 
	C227.846558,104.833168 228.142395,116.414772 234.162125,126.934418 
	C235.908646,129.986496 237.728424,133.195908 240.230270,135.583237 
	C253.419083,148.168289 268.668091,152.468872 286.203033,145.937393 
	C291.448822,143.983429 296.442719,141.513138 299.457306,135.797012 
	C299.718201,135.596283 299.910706,135.343460 300.697205,134.916107 
M71.499733,25.366264 
	C65.334389,25.370157 59.168324,25.431627 53.003990,25.354599 
	C49.730717,25.313698 47.833130,26.524092 46.922455,29.889435 
	C39.967422,55.591389 32.845398,81.248161 25.895617,106.951515 
	C25.354385,108.953224 25.381937,111.260117 25.728891,113.327171 
	C29.190197,133.948685 46.417576,147.845062 67.083382,146.818893 
	C86.914124,145.834213 102.659721,129.549103 104.195770,109.057877 
	C105.763374,88.145836 107.835732,67.271881 109.641731,46.377335 
	C110.222023,39.663540 110.658119,32.937279 111.223610,25.367962 
	C97.754585,25.367962 85.126907,25.367962 71.499733,25.366264 
z"/>
<path fill="#18426A" opacity="1.000000" stroke="none" 
	d="
M268.877380,298.454498 
	C270.136932,298.820435 271.082428,298.993652 272.316467,299.219757 
	C260.115509,312.833221 248.373398,326.360199 241.812744,343.855774 
	C238.309006,342.422943 235.170334,340.976837 231.923691,339.838654 
	C213.612640,333.419159 195.085770,334.193817 176.909027,339.721039 
	C162.778015,344.018097 149.054703,349.680939 135.217987,354.915985 
	C99.912437,368.273529 56.428024,358.071198 30.873962,330.328857 
	C0.470553,297.321899 5.153535,246.743011 41.218102,218.606232 
	C77.223740,190.515442 129.263275,191.304443 164.235092,220.471375 
	C193.593735,244.956863 200.878769,282.775940 182.741806,316.507629 
	C182.209351,317.497925 181.757370,318.531433 180.558868,321.012512 
	C208.636719,304.939941 236.371460,292.519684 268.877380,298.454498 
M162.744736,288.657318 
	C159.218826,287.268250 155.804382,285.267670 152.146790,284.601013 
	C139.537766,282.302795 127.234482,291.772766 127.129158,303.450867 
	C127.049164,312.320831 133.282898,319.870911 142.707550,322.318756 
	C152.685608,324.910339 163.337769,320.906342 167.967606,312.823914 
	C172.627945,304.688263 171.023544,296.495789 162.744736,288.657318 
M169.612762,260.843140 
	C171.770981,253.036270 169.967331,246.307953 163.836838,240.987015 
	C158.312134,236.191895 151.665802,235.148087 144.630844,236.045349 
	C135.445297,237.216858 128.128113,244.538895 127.208069,253.351303 
	C126.331841,261.744049 131.695465,269.773438 140.334885,273.002167 
	C151.894135,277.322083 163.601013,272.692322 169.612762,260.843140 
M88.167595,215.506516 
	C85.771950,218.612366 82.554893,221.390030 81.154968,224.893738 
	C78.403717,231.779587 79.905968,238.401138 85.347382,243.677780 
	C92.063461,250.190506 100.151634,251.655457 108.931328,249.069992 
	C117.553886,246.530807 123.012405,239.549942 123.305794,231.281494 
	C123.599388,223.007401 118.630753,215.932709 109.894592,212.874176 
	C102.603897,210.321686 95.478615,211.075790 88.167595,215.506516 
M72.995110,265.334534 
	C74.044838,261.884216 75.936539,258.448883 75.998276,254.981003 
	C76.262871,240.118668 59.025066,230.982849 44.309086,237.999069 
	C37.090725,241.440628 32.900154,247.086563 32.927082,255.284821 
	C32.954201,263.541748 37.432083,269.024414 44.601021,272.388245 
	C54.350872,276.963013 65.078537,274.385864 72.995110,265.334534 
M57.116924,322.919556 
	C60.259567,321.915863 63.653568,321.374817 66.501083,319.827850 
	C78.463341,313.329132 79.378990,296.577515 68.378502,288.626617 
	C60.826393,283.168121 49.994125,282.856445 42.069393,287.869598 
	C30.238127,295.353973 29.297407,310.727753 40.884346,318.524048 
	C45.095570,321.357574 51.072544,321.566833 57.116924,322.919556 
M86.585075,314.040527 
	C77.271454,323.221558 77.917343,335.923340 88.067421,343.191864 
	C95.875984,348.783600 108.045280,348.660858 115.697144,342.913147 
	C126.601387,334.722443 125.762520,318.709839 113.850616,312.023285 
	C104.767120,306.924408 95.726852,307.558197 86.585075,314.040527 
M94.567215,289.154358 
	C102.853088,292.809326 111.293434,290.253296 113.973778,283.277405 
	C116.034050,277.915314 113.773865,272.183594 108.497368,269.389526 
	C102.233826,266.072784 93.965919,267.963104 90.314011,273.546814 
	C87.112732,278.441528 88.473526,284.188171 94.567215,289.154358 
z"/>
<path fill="#17426B" opacity="1.000000" stroke="none" 
	d="
M73.053879,472.019135 
	C73.053871,472.019135 73.248276,472.182983 73.160690,472.735046 
	C74.165840,475.787537 75.258583,478.287964 76.351318,480.788422 
	C76.351326,480.788422 76.218620,480.866669 76.166992,481.205750 
	C77.071548,484.968170 78.027733,488.391479 78.983910,491.814789 
	C79.440788,491.746979 79.897659,491.679169 80.354538,491.611328 
	C80.588745,490.786560 80.822945,489.961761 81.057152,489.136993 
	C81.057152,489.136993 81.039268,489.056030 81.448105,489.039795 
	C83.140282,487.481384 84.843773,486.125031 85.624062,484.360413 
	C87.561142,479.979614 89.064377,475.407745 90.765091,470.921448 
	C92.702583,465.810577 94.665260,460.709229 96.617004,455.603760 
	C96.617004,455.603760 96.598358,455.881653 97.058838,455.859802 
	C105.396294,455.854614 113.273277,455.871246 121.150261,455.887878 
	C121.150261,455.887878 121.054901,455.975037 121.054337,456.308716 
	C121.468079,457.834381 121.578827,459.292938 122.350220,460.171356 
	C125.377327,463.618347 126.156761,467.493195 126.101402,472.027740 
	C125.885796,489.686707 126.037651,507.349915 125.974228,525.011292 
	C125.967873,526.780762 125.350296,528.539673 125.156090,530.318787 
	C124.896973,532.692566 124.774673,535.081299 124.593620,537.463623 
	C124.593620,537.463623 124.486977,537.476562 124.179146,537.461914 
	C123.748863,537.776550 123.626404,538.105713 123.503952,538.434937 
	C123.503952,538.434937 123.412140,538.428589 123.006424,538.348938 
	C116.302406,538.640869 110.004089,539.012512 103.705780,539.384094 
	C103.705780,539.384094 103.653786,539.310425 103.707565,538.971741 
	C101.786736,535.402466 99.812126,532.171875 97.837540,528.941284 
	C97.746010,522.047180 97.654480,515.153015 97.755760,507.474121 
	C97.870842,505.367279 97.793121,504.045197 97.715393,502.723145 
	C97.275757,502.644318 96.836113,502.565491 96.396477,502.486664 
	C95.276138,505.125977 94.014442,507.715240 93.059380,510.413055 
	C88.373306,523.649963 88.402397,523.654053 74.792824,523.022095 
	C73.809975,522.976440 72.818756,523.111023 71.831436,523.161804 
	C71.831436,523.161804 71.936005,523.089966 71.818542,522.876221 
	C71.355820,522.542480 71.010574,522.422546 70.665329,522.302612 
	C70.665321,522.302612 70.876335,522.106506 70.781601,521.932495 
	C70.385094,521.546326 70.083328,521.334229 69.781555,521.122070 
	C69.781555,521.122070 69.896645,521.076050 69.924309,520.693054 
	C69.461777,517.680359 71.687210,513.972961 67.047081,512.990112 
	C66.290047,510.987549 65.533005,508.984955 64.775963,506.982391 
	C64.411858,506.962921 64.047760,506.943420 63.683659,506.923950 
	C63.683659,509.873688 63.744946,512.824951 63.670254,515.772827 
	C63.535828,521.078186 63.617214,526.413330 63.054012,531.676697 
	C62.495571,536.895508 59.213463,540.145935 53.935482,540.711914 
	C50.493439,541.081055 46.951172,541.106995 43.509506,540.749878 
	C38.329880,540.212280 35.080769,537.156860 33.937607,532.005920 
	C33.721729,531.033203 33.407635,530.045349 33.412674,529.065918 
	C33.522842,507.636139 33.671749,486.206512 34.193306,464.154785 
	C34.599316,463.108215 34.625240,462.683746 34.651165,462.259247 
	C34.651165,462.259247 34.586609,462.110321 35.007713,462.041077 
	C36.678707,461.069183 38.435898,460.435638 39.083916,459.213837 
	C41.073837,455.461853 44.547806,455.235077 47.920406,455.231262 
	C53.651688,455.224823 59.383472,455.662415 65.115044,455.913422 
	C65.115044,455.913422 65.027588,455.983643 65.031227,456.316956 
	C66.821335,459.418732 68.607803,462.187134 70.394264,464.955566 
	C70.394264,464.955566 70.431351,465.084045 70.303131,465.561218 
	C71.134567,468.031952 72.094223,470.025543 73.053879,472.019135 
z"/>
<path fill="#17426A" opacity="1.000000" stroke="none" 
	d="
M190.131195,475.740723 
	C204.751526,483.136719 211.809036,497.933380 208.840607,514.389343 
	C205.949188,530.418396 194.614777,540.939026 177.373184,541.941650 
	C170.091553,542.365112 162.250671,541.449158 155.388596,539.060486 
	C141.754929,534.314514 134.325851,520.789001 135.379562,505.582489 
	C136.519180,489.136383 145.515640,477.648041 160.358078,473.893188 
	C170.318466,471.373383 180.158585,471.819366 190.131195,475.740723 
M170.820801,518.919678 
	C175.959915,519.381042 180.096939,517.670166 182.345322,512.882935 
	C184.554199,508.179840 184.315475,503.428741 180.948242,499.278198 
	C177.858444,495.469574 173.593826,495.039276 169.128693,496.048859 
	C164.354752,497.128204 161.358109,501.250885 161.105759,506.774536 
	C160.829636,512.818604 163.736328,516.751526 170.820801,518.919678 
z"/>
<path fill="#18426A" opacity="1.000000" stroke="none" 
	d="
M392.850250,516.327759 
	C397.719086,518.302734 400.628876,521.686523 400.371735,527.167114 
	C400.108032,532.786743 396.932983,536.629517 391.969696,538.545532 
	C377.154480,544.264648 362.302734,544.421753 348.087158,536.816162 
	C336.759125,530.755493 331.005554,516.591858 333.296295,502.352081 
	C335.721375,487.276947 346.036133,476.213013 360.418640,473.259766 
	C379.047638,469.434540 396.461243,477.815613 402.466248,493.620911 
	C403.401215,496.081787 403.939148,498.733215 404.353271,501.345276 
	C406.004364,511.759430 404.156586,513.928589 392.985657,513.936523 
	C381.201050,513.933411 370.309662,513.933411 358.915741,513.933411 
	C359.375153,515.128479 359.510040,515.751099 359.826416,516.261169 
	C363.874329,522.786499 376.294342,524.457764 382.922882,518.696045 
	C386.183624,515.861694 389.144562,515.455017 392.850250,516.327759 
M367.843811,491.481354 
	C362.768799,492.247223 360.093628,495.220795 359.435303,500.469360 
	C365.513977,500.469360 371.298523,500.469360 377.111938,500.469360 
	C376.510376,493.809113 375.190613,492.468658 367.843811,491.481354 
z"/>
<path fill="#18426A" opacity="1.000000" stroke="none" 
	d="
M254.760925,492.704529 
	C255.892990,489.151581 256.705200,485.900482 257.964417,482.832886 
	C262.811920,471.024017 279.368866,468.927917 287.115997,479.209625 
	C287.987366,480.366028 288.175995,482.798035 287.590698,484.174957 
	C280.561768,500.710693 273.393646,517.188721 266.058594,533.590942 
	C265.172852,535.571594 263.412323,537.670837 261.512085,538.598877 
	C253.737213,542.395935 245.671280,542.040649 237.989380,538.395935 
	C235.842834,537.377502 233.977371,534.838440 232.939346,532.561035 
	C225.764404,516.819641 218.920380,500.927673 211.781006,485.169739 
	C210.125793,481.516388 210.935074,479.145935 214.188492,477.247711 
	C215.194321,476.660828 216.168747,476.014343 217.201614,475.480377 
	C229.398941,469.174133 239.230515,473.272491 243.213821,486.391357 
	C245.282867,493.205597 247.193039,500.068115 250.215225,507.034607 
	C251.692276,502.386627 253.169312,497.738647 254.760925,492.704529 
z"/>
<path fill="#13406A" opacity="1.000000" stroke="none" 
	d="
M324.947815,484.007629 
	C325.040405,485.075470 325.132965,486.143311 324.818237,487.892273 
	C324.275513,502.407349 324.140106,516.241333 323.857208,530.406677 
	C323.318237,532.623901 322.926697,534.509766 322.535187,536.395630 
	C322.535187,536.395630 322.442810,536.386230 322.138855,536.401733 
	C321.554596,536.943970 321.274261,537.470642 320.993927,537.997375 
	C320.993927,537.997375 321.000000,538.000000 320.622803,537.989868 
	C315.921844,538.582764 311.605103,539.248352 307.268280,539.735352 
	C306.411560,539.831482 305.456421,539.294739 304.583344,538.955444 
	C302.078857,537.982117 299.593170,536.960266 297.100098,535.957520 
	C297.100098,535.957520 296.825989,535.775696 296.876831,535.159668 
	C296.614410,532.753052 296.038147,530.963684 296.029480,529.171570 
	C295.959412,514.697083 295.783844,500.216217 296.186096,485.752472 
	C296.262939,482.989868 298.056091,479.312836 300.257843,477.761902 
	C305.662903,473.954620 312.244110,474.590881 318.208252,476.277802 
	C320.395203,476.896332 321.729889,480.482605 323.491577,482.684540 
	C323.896149,483.190247 324.458221,483.569946 324.947815,484.007629 
z"/>
<path fill="#EB5B5D" opacity="1.000000" stroke="none" 
	d="
M111.590668,649.936523 
	C106.408813,650.770508 103.607246,648.547241 102.484612,643.768188 
	C102.036804,643.867432 101.588997,643.966675 101.141190,644.065857 
	C101.141190,646.532715 101.133926,648.999512 101.142776,651.466370 
	C101.158508,655.849487 98.731117,657.734253 94.599968,657.913269 
	C89.438675,658.136841 86.668831,656.463623 86.539818,651.986206 
	C86.247841,641.852722 86.304977,631.702881 86.498779,621.565125 
	C86.563515,618.178467 88.218918,615.210693 92.147911,615.171631 
	C96.580719,615.127502 101.788902,613.386658 104.319984,619.209290 
	C105.932640,622.919128 107.457329,626.667175 109.021477,630.398071 
	C109.527061,630.402222 110.032639,630.406311 110.538223,630.410461 
	C111.824867,627.095154 113.055298,623.756592 114.410973,620.469788 
	C116.604660,615.151123 119.858124,613.868164 127.197418,615.175964 
	C132.110580,616.051514 132.916000,619.531555 132.885727,623.700134 
	C132.821716,632.513611 132.908981,641.328796 132.773605,650.140808 
	C132.683441,656.010132 130.730331,657.965881 125.485161,657.973877 
	C119.965889,657.982300 118.050705,655.958679 117.909142,649.900757 
	C117.860802,647.832031 117.901466,645.761108 117.901466,643.623962 
	C115.734093,645.922302 113.864563,647.904785 111.590668,649.936523 
z"/>
<path fill="#EA5B5C" opacity="1.000000" stroke="none" 
	d="
M189.711960,657.677368 
	C185.273376,656.205322 184.359131,652.721863 184.270966,649.183350 
	C184.059647,640.699890 184.004776,632.200806 184.281601,623.720947 
	C184.478683,617.683350 187.036621,615.336365 193.116455,615.300964 
	C199.425522,615.264221 205.769150,615.332825 212.037857,615.956421 
	C217.522430,616.502014 221.812973,619.352478 223.360992,625.045776 
	C224.906403,630.729431 224.252579,636.039551 219.450760,640.037842 
	C217.264633,641.858215 217.126465,643.425659 218.997620,645.404602 
	C219.911636,646.371277 220.946716,647.294189 221.592422,648.427551 
	C222.602646,650.200745 224.525024,652.927185 223.923874,653.835754 
	C222.712585,655.666382 220.207733,657.155945 217.975098,657.686768 
	C213.591141,658.729065 209.819931,657.012390 206.938217,653.487854 
	C205.204086,651.366821 203.438049,649.271851 201.634293,647.102539 
	C200.046951,650.703003 199.277725,654.249939 197.162766,656.570312 
	C195.890762,657.965881 192.521896,657.450256 189.711960,657.677368 
M204.990005,634.807373 
	C205.945602,633.020691 206.901215,631.234070 207.856796,629.447388 
	C205.996048,628.703003 204.105270,627.375427 202.287659,627.468994 
	C201.424561,627.513489 200.276718,630.197144 200.003586,631.811340 
	C199.453430,635.062683 201.830612,635.125366 204.990005,634.807373 
z"/>
<path fill="#EA5B5C" opacity="1.000000" stroke="none" 
	d="
M228.110809,625.266602 
	C228.462753,617.302490 229.920471,615.301270 235.236267,615.018494 
	C241.653351,614.677124 243.978943,616.844360 244.148209,623.384705 
	C244.201935,625.460938 244.156601,627.539795 244.156601,629.617432 
	C244.574158,629.720215 244.991714,629.822998 245.409286,629.925781 
	C247.485306,626.641602 249.404343,623.244263 251.671509,620.097778 
	C255.812241,614.351074 262.007599,613.282898 266.607666,617.736267 
	C267.700623,618.794373 267.979156,621.495667 267.529114,623.139099 
	C266.988586,625.113037 265.496552,626.984741 264.017426,628.515015 
	C258.782867,633.930542 259.727417,639.008728 264.439209,644.090576 
	C265.111511,644.815674 265.694489,645.665527 266.144745,646.546631 
	C267.477936,649.155334 270.986115,651.359375 268.024323,654.871521 
	C265.442841,657.932800 258.836243,659.084412 255.661011,656.400940 
	C252.822388,654.002014 250.804688,650.623108 248.468369,647.642517 
	C247.478851,646.380066 246.600739,645.030334 245.671982,643.720215 
	C245.157608,643.797668 244.643219,643.875122 244.128845,643.952515 
	C244.128845,646.093140 244.228134,648.239258 244.109497,650.373291 
	C243.802048,655.903564 241.710083,657.914978 236.388504,657.963501 
	C231.068344,658.012085 228.474686,655.978394 228.288589,650.694031 
	C227.995850,642.381592 228.147751,634.053528 228.110809,625.266602 
z"/>
<path fill="#EA5A5B" opacity="1.000000" stroke="none" 
	d="
M149.480026,655.548157 
	C147.071198,656.589355 144.945038,658.030640 142.829498,658.015137 
	C136.914444,657.971985 134.869614,654.688904 136.965668,649.186646 
	C140.578598,639.702576 144.468170,630.319275 147.874161,620.762756 
	C149.756439,615.481506 153.731964,615.062439 158.243164,615.034912 
	C162.788147,615.007141 166.758545,615.554199 168.717834,620.700256 
	C172.150177,629.715271 176.004715,638.568665 179.566528,647.535767 
	C180.780029,650.590881 183.488327,653.871155 178.870453,656.624390 
	C174.430176,659.271545 169.532867,658.720642 166.541443,654.289612 
	C164.424149,651.153503 161.891510,650.772827 158.552567,650.538086 
	C154.359039,650.243225 151.486969,651.452759 149.480026,655.548157 
M155.518143,636.167969 
	C154.317337,642.070740 158.410065,639.022522 161.797989,639.822205 
	C160.519028,636.337952 159.589844,633.806641 158.660660,631.275330 
	C158.266266,631.334351 157.871872,631.393372 157.477478,631.452332 
	C156.923462,632.789856 156.369461,634.127380 155.518143,636.167969 
z"/>
<path fill="#EB5B5C" opacity="1.000000" stroke="none" 
	d="
M308.865295,650.985352 
	C308.905914,651.430481 308.946533,651.875671 308.602356,652.696716 
	C307.128571,654.364319 306.039612,655.656006 304.950623,656.947693 
	C296.229584,657.048706 287.506348,657.278870 278.789490,657.131775 
	C277.219818,657.105286 275.676361,655.526184 273.940674,654.087280 
	C273.479980,653.011719 273.199371,652.512634 272.918762,652.013611 
	C272.853058,642.711975 272.762939,633.410339 272.733185,624.108582 
	C272.720581,620.167786 273.753662,616.825378 278.992249,615.710510 
	C287.910645,615.574158 296.016998,615.459290 304.123352,615.344360 
	C304.539154,615.489075 304.954956,615.633850 305.865204,616.060181 
	C306.909332,616.553467 307.459045,616.765137 308.008759,616.976807 
	C308.111206,617.288025 308.287170,617.549866 308.750793,618.308594 
	C308.809418,620.955383 308.653900,623.055969 308.498383,625.156494 
	C307.870148,625.754578 307.241913,626.352600 306.025085,627.081970 
	C304.628662,627.499634 303.820801,627.786011 303.012909,628.072388 
	C302.260284,628.029541 301.507660,627.986633 300.058838,627.746948 
	C296.797150,627.502747 294.205963,627.239990 291.681915,627.540710 
	C290.934113,627.629761 290.375275,629.305542 290.154053,630.351196 
	C290.861633,630.385864 291.144958,630.323608 291.746704,630.413696 
	C293.202179,630.566467 294.339294,630.566772 295.476379,630.567139 
	C297.830841,631.126831 300.649536,631.094299 302.379822,632.450439 
	C303.572327,633.385071 304.162323,636.756226 303.391815,638.112854 
	C302.388336,639.879639 299.865753,640.922546 297.824829,641.927368 
	C295.039795,643.298462 290.898254,639.774353 289.052979,645.124390 
	C294.864502,646.189697 300.521973,646.445740 306.179443,646.701782 
	C306.179443,646.701782 306.243591,646.609985 306.269867,646.949341 
	C307.152527,648.520935 308.008911,649.753174 308.865295,650.985352 
z"/>
<path fill="#EA5A5C" opacity="1.000000" stroke="none"
	d="
M351.396973,625.100220
	C349.305267,629.337463 345.267212,629.028748 340.757385,629.648438
	C339.866608,637.010864 339.713013,644.064758 339.559418,651.118652
	C338.061890,656.522461 335.841736,658.130249 330.502777,657.951050
	C325.809204,657.793579 323.684784,655.320862 323.606995,650.145264
	C323.511078,649.341553 323.431366,649.182922 323.351624,649.024353
	C323.432648,645.982056 323.513641,642.939697 323.622314,639.199585
	C323.587280,638.331421 323.524536,638.161133 323.461823,637.990845
	C323.512482,636.588867 323.563141,635.186951 323.674744,633.036682
	C323.125000,631.302307 322.514343,630.316223 321.903687,629.330139
	C318.192566,628.824829 313.979889,629.599243 311.508118,624.703979
	C311.539764,622.053528 311.801056,620.045044 312.062378,618.036499
	C312.340881,617.871460 312.577057,617.659302 313.295288,617.109619
	C315.929352,616.475952 318.034149,615.875000 320.149658,615.834412
	C329.131500,615.661987 338.116516,615.655823 347.100372,615.588928
	C347.864563,615.973999 348.628754,616.359070 349.762939,617.277222
	C350.554291,620.240295 350.975647,622.670227 351.396973,625.100220
z"/>
<path fill="#1A436B" opacity="1.000000" stroke="none" 
	d="
M296.776276,445.917847 
	C303.339844,440.102051 312.297455,438.957886 319.197845,442.842133 
	C323.791046,445.427673 326.132599,449.448944 326.186981,454.681976 
	C326.241547,459.937500 323.901764,463.961395 319.342621,466.592529 
	C312.565948,470.503448 302.634430,469.338776 297.538208,464.102814 
	C293.042786,459.484131 292.663666,452.639130 296.776276,445.917847 
z"/>
<path fill="#D35B62" opacity="1.000000" stroke="none" 
	d="
M45.574711,1.987256 
	C107.382805,1.926424 168.830627,1.961116 230.278458,1.984041 
	C283.901794,2.004047 337.525116,2.010796 391.617889,1.940965 
	C395.419037,3.226634 398.750732,4.594739 402.215637,6.266288 
	C400.824188,6.383879 399.299500,6.198027 397.387421,6.006093 
	C397.000000,6.000011 397.002686,6.002581 397.002686,6.002580 
	C393.323181,5.005278 389.653107,3.186652 385.962677,3.144458 
	C362.649384,2.877909 339.331604,3.003006 316.015289,3.002804 
	C239.404572,3.002141 162.793564,2.890856 86.183395,3.094177 
	C70.005692,3.137112 53.626087,0.996228 37.300674,5.950715 
	C39.662289,4.640568 42.438362,3.359118 45.574711,1.987256 
z"/>
<path fill="#3B536D" opacity="1.000000" stroke="none" 
	d="
M325.010590,483.626648 
	C324.458221,483.569946 323.896149,483.190247 323.491577,482.684540 
	C321.729889,480.482605 320.395203,476.896332 318.208252,476.277802 
	C312.244110,474.590881 305.662903,473.954620 300.257843,477.761902 
	C298.056091,479.312836 296.262939,482.989868 296.186096,485.752472 
	C295.783844,500.216217 295.959412,514.697083 296.029480,529.171570 
	C296.038147,530.963684 296.614410,532.753052 296.871918,534.995300 
	C295.985077,532.322937 294.505035,529.212952 294.437164,526.072510 
	C294.167694,513.597412 294.198975,501.110748 294.384796,488.632294 
	C294.592316,474.699158 307.700745,467.411072 319.608917,474.860779 
	C322.174744,476.465912 323.289948,480.389832 325.010590,483.626648 
z"/>
<path fill="#2B4966" opacity="1.000000" stroke="none" 
	d="
M124.887878,537.285400 
	C124.774673,535.081299 124.896973,532.692566 125.156090,530.318787 
	C125.350296,528.539673 125.967873,526.780762 125.974228,525.011292 
	C126.037651,507.349915 125.885796,489.686707 126.101402,472.027740 
	C126.156761,467.493195 125.377327,463.618347 122.350220,460.171356 
	C121.578827,459.292938 121.468079,457.834381 121.079346,456.249146 
	C126.226006,457.500854 127.784271,461.738251 127.827217,466.343719 
	C128.021118,487.137329 128.047333,507.934509 127.839020,528.727478 
	C127.810951,531.529297 126.109001,534.314392 124.887878,537.285400 
z"/>
<path fill="#2B4966" opacity="1.000000" stroke="none" 
	d="
M96.283386,455.675598 
	C94.665260,460.709229 92.702583,465.810577 90.765091,470.921448 
	C89.064377,475.407745 87.561142,479.979614 85.624062,484.360413 
	C84.843773,486.125031 83.140282,487.481384 81.489548,489.041016 
	C84.523468,480.252716 87.801666,471.396057 91.403679,462.673126 
	C92.438858,460.166290 94.408539,458.045319 96.283386,455.675598 
z"/>
<path fill="#2B4966" opacity="1.000000" stroke="none" 
	d="
M72.068184,523.471680 
	C72.818756,523.111023 73.809975,522.976440 74.792824,523.022095 
	C88.402397,523.654053 88.373306,523.649963 93.059380,510.413055 
	C94.014442,507.715240 95.276138,505.125977 96.396477,502.486664 
	C96.836113,502.565491 97.275757,502.644318 97.715393,502.723145 
	C97.793121,504.045197 97.870842,505.367279 97.884003,507.098572 
	C96.990845,508.039215 95.658691,508.405914 95.421661,509.130737 
	C94.446159,512.113892 93.772018,515.198364 93.045753,518.259521 
	C92.035812,522.516418 89.412804,525.046936 85.016937,524.942871 
	C80.772820,524.842468 76.541740,524.190918 72.068184,523.471680 
z"/>
<path fill="#2B4966" opacity="1.000000" stroke="none" 
	d="
M64.913300,455.606628 
	C59.383472,455.662415 53.651688,455.224823 47.920406,455.231262 
	C44.547806,455.235077 41.073837,455.461853 39.083916,459.213837 
	C38.435898,460.435638 36.678707,461.069183 35.036961,461.965332 
	C35.257591,457.825592 38.018433,454.836609 41.706787,454.662994 
	C49.348122,454.303314 57.040295,455.023621 64.913300,455.606628 
z"/>
<path fill="#3B536D" opacity="1.000000" stroke="none" 
	d="
M297.162354,536.290649 
	C299.593170,536.960266 302.078857,537.982117 304.583344,538.955444 
	C305.456421,539.294739 306.411560,539.831482 307.268280,539.735352 
	C311.605103,539.248352 315.921844,538.582764 320.621582,537.986938 
	C314.476257,543.163513 303.670990,542.540588 297.162354,536.290649 
z"/>
<path fill="#2B4966" opacity="1.000000" stroke="none" 
	d="
M120.996323,455.558289 
	C113.273277,455.871246 105.396294,455.854614 97.082047,455.723328 
	C104.662666,452.425537 112.737587,452.875488 120.996323,455.558289 
z"/>
<path fill="#163451" opacity="1.000000" stroke="none" 
	d="
M324.004669,530.075317 
	C324.140106,516.241333 324.275513,502.407349 324.712280,488.281616 
	C325.074432,501.686432 325.135223,515.382996 324.844757,529.562866 
	C324.493500,530.046204 324.004669,530.075317 324.004669,530.075317 
z"/>
<path fill="#2B4966" opacity="1.000000" stroke="none" 
	d="
M97.716545,529.231262 
	C99.812126,532.171875 101.786736,535.402466 103.694412,539.014893 
	C99.126114,537.626221 98.136070,533.710999 97.716545,529.231262 
z"/>
<path fill="#2B4966" opacity="1.000000" stroke="none" 
	d="
M103.985748,539.654541 
	C110.004089,539.012512 116.302406,538.640869 123.006859,538.394958 
	C117.304871,542.728577 110.799583,541.521484 103.985748,539.654541 
z"/>
<path fill="#CF605C" opacity="1.000000" stroke="none" 
	d="
M305.991089,646.331665 
	C300.521973,646.445740 294.864502,646.189697 289.089325,645.556335 
	C294.581970,645.439880 300.192352,645.700745 305.991089,646.331665 
z"/>
<path fill="#2B4966" opacity="1.000000" stroke="none" 
	d="
M80.733047,488.983337 
	C80.822945,489.961761 80.588745,490.786560 80.354538,491.611328 
	C79.897659,491.679169 79.440788,491.746979 78.983910,491.814789 
	C78.027733,488.391479 77.071548,484.968170 76.202103,481.137207 
	C77.662201,483.429596 79.035568,486.129608 80.733047,488.983337 
z"/>
<path fill="#2B4966" opacity="1.000000" stroke="none" 
	d="
M70.385880,464.572510 
	C68.607803,462.187134 66.821335,459.418732 65.055756,456.266541 
	C66.843590,458.651672 68.610542,461.420593 70.385880,464.572510 
z"/>
<path fill="#2B4966" opacity="1.000000" stroke="none" 
	d="
M67.019768,513.366821 
	C71.687210,513.972961 69.461777,517.680359 69.892334,520.746155 
	C68.885956,518.702698 67.939209,516.223145 67.019768,513.366821 
z"/>
<path fill="#EA5B5C" opacity="1.000000" stroke="none"
	d="
M351.725739,624.967102
	C350.975647,622.670227 350.554291,620.240295 350.053589,617.414001
	C353.911865,618.759705 353.497528,621.659912 351.725739,624.967102
z"/>
<path fill="#2B4966" opacity="1.000000" stroke="none"
	d="
M76.323357,480.411133
	C75.258583,478.287964 74.165840,475.787537 73.123222,472.856506
	C74.214027,474.961884 75.254715,477.497833 76.323357,480.411133
z"/>
<path fill="#3B536D" opacity="1.000000" stroke="none" 
	d="
M323.857208,530.406677 
	C324.004669,530.075317 324.493500,530.046204 324.737061,530.020874 
	C324.351074,532.000488 323.721558,534.005310 322.813599,536.202881 
	C322.926697,534.509766 323.318237,532.623901 323.857208,530.406677 
z"/>
<path fill="#CF605C" opacity="1.000000" stroke="none" 
	d="
M305.317871,656.968628 
	C306.039612,655.656006 307.128571,654.364319 308.549438,653.029053 
	C307.815918,654.320129 306.750519,655.654785 305.317871,656.968628 
z"/>
<path fill="#D35B62" opacity="1.000000" stroke="none" 
	d="
M409.377808,13.370090 
	C407.974457,12.290480 406.551636,10.870206 405.182556,9.087775 
	C406.610291,10.160222 407.984314,11.594825 409.377808,13.370090 
z"/>
<path fill="#2B4966" opacity="1.000000" stroke="none" 
	d="
M73.061638,471.641907 
	C72.094223,470.025543 71.134567,468.031952 70.289703,465.626709 
	C71.292793,467.231598 72.181099,469.248138 73.061638,471.641907 
z"/>
<path fill="#CF605C" opacity="1.000000" stroke="none" 
	d="
M308.983521,650.684937 
	C308.008911,649.753174 307.152527,648.520935 306.325806,646.947693 
	C307.270935,647.865906 308.186340,649.125244 308.983521,650.684937 
z"/>
<path fill="#D35B62" opacity="1.000000" stroke="none" 
	d="
M405.158722,8.452291 
	C404.283875,8.280311 403.301270,7.799096 402.321350,6.946079 
	C403.233032,7.097205 404.141998,7.620131 405.158722,8.452291 
z"/>
<path fill="#D35B62" opacity="1.000000" stroke="none" 
	d="
M410.981384,15.690309 
	C410.388489,15.450709 409.784515,14.898766 409.280701,14.000565 
	C409.910675,14.228860 410.440491,14.803411 410.981384,15.690309 
z"/>
<path fill="#3B536D" opacity="1.000000" stroke="none" 
	d="
M321.271301,537.930054 
	C321.274261,537.470642 321.554596,536.943970 322.153625,536.445740 
	C322.164459,536.937073 321.856598,537.399841 321.271301,537.930054 
z"/>
<path fill="#2B4966" opacity="1.000000" stroke="none" 
	d="
M69.809082,521.404541 
	C70.083328,521.334229 70.385094,521.546326 70.696838,522.048950 
	C70.416748,522.121948 70.126678,521.904541 69.809082,521.404541 
z"/>
<path fill="#2B4966" opacity="1.000000" stroke="none" 
	d="
M123.722809,538.370728 
	C123.626404,538.105713 123.748863,537.776550 124.161987,537.512817 
	C124.392097,537.898071 124.221771,538.140808 123.722809,538.370728 
z"/>
<path fill="#2B4966" opacity="1.000000" stroke="none" 
	d="
M34.417965,462.488342 
	C34.625240,462.683746 34.599316,463.108215 34.343399,463.763977 
	C34.137199,463.569305 34.160984,463.143402 34.417965,462.488342 
z"/>
<path fill="#2B4966" opacity="1.000000" stroke="none" 
	d="
M70.764862,522.568970 
	C71.010574,522.422546 71.355820,522.542480 71.795227,522.935181 
	C71.547722,523.083740 71.206062,522.959534 70.764862,522.568970 
z"/>
<path fill="#E1666A" opacity="1.000000" stroke="none" 
	d="
M299.039948,136.035690 
	C296.442719,141.513138 291.448822,143.983429 286.203033,145.937393 
	C268.668091,152.468872 253.419083,148.168289 240.230270,135.583237 
	C237.728424,133.195908 235.908646,129.986496 234.162125,126.934418 
	C228.142395,116.414772 227.846558,104.833168 227.962387,93.115822 
	C228.141907,74.956726 227.944702,56.794121 228.064865,38.634048 
	C228.088791,35.017605 228.597321,31.362019 229.293442,27.804918 
	C229.922775,24.588860 231.374268,22.660143 235.578171,23.504370 
	C239.007034,24.192955 242.764221,23.071932 246.377838,23.047260 
	C258.373444,22.965361 270.369965,23.016697 282.366119,23.015905 
	C287.613342,23.015558 292.865875,22.883499 298.104065,23.100477 
	C299.439178,23.155781 300.728607,24.314489 302.080475,25.414373 
	C302.121918,25.862522 302.027222,25.966177 301.560181,25.905102 
	C277.978882,25.844028 254.864624,25.844028 231.574081,25.844028 
	C231.361816,27.203863 231.083618,28.157375 231.082932,29.111084 
	C231.063950,55.937355 230.752457,82.768806 231.184219,109.588219 
	C231.499680,129.182846 248.826416,145.647247 268.390930,146.536224 
	C280.140320,147.070099 289.811523,142.799744 298.617096,135.565521 
	C298.757324,135.722916 299.039948,136.035690 299.039948,136.035690 
z"/>
<path fill="#E1666A" opacity="1.000000" stroke="none"
	d="
M302.163391,25.805882
	C303.132355,27.176485 304.722687,28.536236 304.876038,30.042309
	C305.663849,37.779041 305.726166,45.601486 306.765533,53.296242
	C307.372559,57.790134 308.347229,62.054050 308.254852,66.772034
	C308.087738,75.309456 309.765411,83.865494 310.235382,92.437744
	C310.716797,101.219086 310.930084,110.034081 310.761627,118.824783
	C310.664673,123.884903 307.493835,127.700333 303.304871,130.897766
	C302.862366,130.871490 302.635376,130.656372 302.735779,130.316620
	C308.127197,121.507652 310.259613,112.404930 309.279572,102.368813
	C307.550934,84.666130 306.290985,66.918182 304.688812,49.202400
	C303.986816,41.440247 302.925415,33.710590 302.027222,25.966177
	C302.027222,25.966177 302.121918,25.862522 302.163391,25.805882
z"/>
<path fill="#DE6D6E" opacity="1.000000" stroke="none" 
	d="
M13.479380,63.966820 
	C15.823274,54.052418 18.518312,44.052341 21.464537,33.759354 
	C21.306665,36.328609 21.139055,39.251209 20.440699,42.040947 
	C18.735620,48.852261 16.800041,55.606323 14.905258,62.368866 
	C14.748221,62.929337 14.198041,63.379646 13.479380,63.966820 
z"/>
<path fill="#DE6D6E" opacity="1.000000" stroke="none" 
	d="
M22.060093,32.816841 
	C23.167791,27.935886 24.602118,22.876791 26.320591,17.583071 
	C28.334330,23.310190 24.132860,27.635777 22.060093,32.816841 
z"/>
<path fill="#DE6D6E" opacity="1.000000" stroke="none" 
	d="
M26.983704,16.858807 
	C28.768324,13.922085 30.907484,10.888473 33.370239,7.776882 
	C34.153725,12.528069 29.283564,13.619445 26.983704,16.858807 
z"/>
<path fill="#E1666A" opacity="1.000000" stroke="none" 
	d="
M302.975525,130.979370 
	C302.291565,132.363541 301.494385,133.639832 300.209900,134.837006 
	C299.722565,134.757904 299.408478,134.479340 299.562927,134.201782 
	C300.690033,132.834946 301.662720,131.745667 302.635376,130.656372 
	C302.635376,130.656372 302.862366,130.871490 302.975525,130.979370 
z"/>
<path fill="#DE6D6E" opacity="1.000000" stroke="none" 
	d="
M34.100418,7.784777 
	C34.551674,7.088940 35.381420,6.484541 36.543118,5.859822 
	C36.076347,6.518407 35.277626,7.197310 34.100418,7.784777 
z"/>
<path fill="#D35B62" opacity="1.000000" stroke="none" 
	d="
M396.999146,5.998747 
	C396.653717,6.244387 396.309204,6.491292 395.964661,6.738200 
	C395.878754,6.616288 395.792847,6.494374 395.706970,6.372458 
	C395.980499,6.259205 396.254059,6.145955 396.765137,6.017642 
	C397.002686,6.002581 397.000000,6.000011 396.999146,5.998747 
z"/>
<path fill="#E1666A" opacity="1.000000" stroke="none" 
	d="
M299.878693,134.898224 
	C299.910706,135.343460 299.718201,135.596283 299.248627,135.916351 
	C299.039948,136.035690 298.757324,135.722916 298.745331,135.385376 
	C298.925079,134.818802 299.150116,134.629288 299.408478,134.479340 
	C299.408478,134.479340 299.722565,134.757904 299.878693,134.898224 
z"/>
</svg>