<?xml version="1.0" encoding="UTF-8"?>
<!-- Generator: visioncortex VTracer -->
<svg id="svg" version="1.1" xmlns="http://www.w3.org/2000/svg" style="display: block;" viewBox="0 0 512 512"><path d="M0 0 C1.71837653 -0.00967334 1.71837653 -0.00967334 3.47146773 -0.0195421 C4.73059045 -0.01644489 5.98971317 -0.01334769 7.28699112 -0.01015663 C8.63767891 -0.01389255 9.98836453 -0.01849384 11.33904672 -0.02388728 C15.05430536 -0.03614022 18.76947411 -0.03585412 22.48474836 -0.03349853 C26.49033597 -0.03309093 30.49589453 -0.04412409 34.50146866 -0.05361366 C42.35097386 -0.07023774 50.20044903 -0.07572386 58.04997036 -0.07683842 C64.43043681 -0.07778833 70.81089334 -0.08189577 77.19135666 -0.08823967 C95.27791311 -0.10585676 113.36444582 -0.11507794 131.45101091 -0.11357872 C132.91406764 -0.11345885 132.91406764 -0.11345885 134.40668106 -0.11333656 C135.87152279 -0.11321392 135.87152279 -0.11321392 137.36595729 -0.1130888 C153.19039615 -0.11227601 169.01473979 -0.13141075 184.83915111 -0.1596133 C201.08438144 -0.1883375 217.32956534 -0.20215381 233.57482171 -0.20042574 C242.69652719 -0.19976163 251.8181329 -0.20526316 260.93981552 -0.22678185 C268.70705162 -0.24498766 276.47414272 -0.24934602 284.24139091 -0.235763 C288.20393272 -0.22922997 292.16619631 -0.22912793 296.1287117 -0.2464695 C299.75843727 -0.26219111 303.38766384 -0.25934638 307.01737717 -0.24190123 C308.94789095 -0.2373773 310.87842016 -0.252496 312.80887389 -0.26838052 C319.81866604 -0.21260859 324.46584812 0.44153239 330.40765762 4.25726891 C334.95970691 9.04275661 335.53260204 12.57543001 335.5418787 19.0412159 C335.54423093 19.73819021 335.54658316 20.43516453 335.54900667 21.15325928 C335.55570323 23.50620227 335.55523825 25.85909012 335.55482864 28.21204185 C335.55812685 29.90906078 335.56185233 31.60607892 335.56597012 33.30309606 C335.576003 37.98025331 335.57970898 42.65739772 335.58235943 47.33456421 C335.58625863 52.3735528 335.59583718 57.4125312 335.6045723 62.45151329 C335.62434678 74.6268922 335.6344038 86.80227196 335.64330009 98.97766292 C335.64768105 104.70788177 335.65304833 110.43809968 335.65828896 116.16831779 C335.67530161 135.21066534 335.6897968 154.25301231 335.6970377 173.29536629 C335.69894766 178.23839633 335.70086799 183.18142638 335.70282364 188.12445641 C335.70330738 189.35305701 335.70379112 190.58165762 335.70428952 191.84748855 C335.71259361 211.75949909 335.73793676 231.67144963 335.77040432 251.58343396 C335.80344869 272.01531816 335.82148405 292.44717184 335.82468194 312.87908292 C335.82684938 324.35547114 335.83563234 335.83177185 335.86114311 347.30813408 C335.88281423 357.07986949 335.8909182 366.85149613 335.88117633 376.62325284 C335.87662132 381.61043215 335.87858752 386.59738687 335.89793777 391.5845356 C335.91549646 396.14928733 335.91463128 400.71364941 335.89904048 405.27840486 C335.89665329 406.93051965 335.90104524 408.5826609 335.91286913 410.2347351 C335.92794615 412.48028336 335.91834633 414.72444343 335.90264225 416.96995735 C335.90361906 418.2172313 335.90459587 419.46450525 335.90560228 420.74957538 C335.10555748 426.38536631 332.91033726 430.09192551 328.34515762 433.63226891 C323.61201466 436.25060331 319.74718429 436.40166242 314.47081852 436.39148998 C313.64920415 436.39384221 312.82758978 436.39619444 311.981078 436.39861795 C309.2041348 436.40532069 306.42723825 436.40484935 303.65028763 436.40443993 C301.6487463 436.40773775 299.64720563 436.41146315 297.64566582 436.41558141 C292.12672291 436.42561868 286.60779088 436.42932097 281.08884013 436.43197072 C275.14389432 436.43586863 269.19895717 436.44544729 263.25401688 436.45418358 C249.56719196 436.47302706 235.88036549 436.48320603 222.19353117 436.49164426 C215.43132614 436.49584967 208.669122 436.5010718 201.90691773 436.50632879 C178.7633361 436.52421952 155.61975423 436.53921601 132.47616673 436.54664898 C131.02299379 436.54712374 129.56982085 436.54759963 128.11664791 436.54807664 C127.03567357 436.54843121 127.03567357 436.54843121 125.93286137 436.54879293 C122.28163785 436.54999414 118.63041434 436.55120959 114.97919083 436.55243492 C114.25459201 436.55267507 113.52999319 436.55291522 112.78343683 436.55316265 C89.28750067 436.56105648 65.79161496 436.58448975 42.29570083 436.61699087 C17.45992233 436.65128271 -7.37582664 436.67099951 -32.21162921 436.67429322 C-34.93764771 436.67471077 -37.6636662 436.67519033 -40.38968468 436.6757164 C-41.06091693 436.67583959 -41.73214917 436.67596278 -42.42372179 436.67608971 C-53.22945393 436.67842253 -64.0351275 436.69408703 -74.84083876 436.71455825 C-85.70104187 436.73480638 -96.56117121 436.73996471 -107.42138948 436.73078761 C-113.30587278 436.72623211 -119.19016572 436.72820182 -125.07462311 436.74754906 C-130.46037854 436.76510402 -135.84580367 436.76424539 -141.23156223 436.74865177 C-143.18113493 436.74626402 -145.13073003 436.7506593 -147.08026835 436.76248042 C-149.72934711 436.77754974 -152.37724805 436.76796146 -155.02629757 436.75225353 C-155.7841358 436.76247574 -156.54197403 436.77269795 -157.32277706 436.78322992 C-162.80243758 436.71226037 -166.99983575 435.27334111 -171.59234238 432.25726891 C-175.69713834 427.94197059 -176.71584328 424.71516495 -176.72656345 418.86047459 C-176.7310213 417.73306486 -176.73547914 416.60565514 -176.74007207 415.44408149 C-176.73988771 414.20013643 -176.73970335 412.95619137 -176.7395134 411.67455101 C-176.74319009 410.35723372 -176.74686677 409.03991643 -176.75065488 407.68268043 C-176.76067979 404.0183323 -176.76439245 400.35400054 -176.76704419 396.68964064 C-176.77094571 392.74065938 -176.78052406 388.7916911 -176.78925705 384.84271812 C-176.80902434 375.30288973 -176.81908738 365.76306026 -176.82798484 356.2232165 C-176.83236675 351.732637 -176.83773376 347.24205867 -176.84297371 342.7514801 C-176.8599852 327.82760138 -176.87448042 312.90372339 -176.88172245 297.97983646 C-176.88363239 294.106575 -176.88555272 290.23331355 -176.88750839 286.36005211 C-176.88799213 285.3973539 -176.88847587 284.4346557 -176.88897427 283.44278482 C-176.8972785 267.84003067 -176.92262239 252.23735308 -176.95508907 236.63463237 C-176.98813715 220.62223116 -177.00616911 204.60986889 -177.00936669 188.59743339 C-177.01153373 179.60431947 -177.0203108 170.61131726 -177.04582787 161.61823654 C-177.06750402 153.96108549 -177.07560049 146.30407327 -177.06586108 138.64689501 C-177.06130757 134.73928313 -177.0632633 130.83195789 -177.08262253 126.92438507 C-177.10019231 123.34715925 -177.09930745 119.77043049 -177.08372524 116.19319985 C-177.08020952 114.28600646 -177.09642153 112.37880822 -177.11332971 110.47168654 C-177.06524998 104.11084527 -176.96648647 100.04292551 -172.59234238 95.25726891 C-168.5314756 91.67983865 -166.24648666 90.13130909 -160.87209702 90.13701439 C-159.37866776 90.13495239 -159.37866776 90.13495239 -157.85506821 90.13284874 C-156.75887161 90.13644402 -155.66267502 90.14003929 -154.53326035 90.14374352 C-153.38204697 90.14359749 -152.23083359 90.14345146 -151.04473495 90.14330101 C-147.22464769 90.14399986 -143.40460867 90.15179101 -139.58452988 90.15961266 C-136.94179943 90.16147693 -134.29906865 90.16290079 -131.65633774 90.16390038 C-125.40193615 90.16701142 -119.14755199 90.17522177 -112.89315808 90.18524987 C-105.77353978 90.19641802 -98.65392067 90.20192323 -91.5342958 90.2069453 C-76.88696899 90.21740456 -62.23965593 90.23499963 -47.59234238 90.25726891 C-47.29914234 89.26024027 -47.29914234 89.26024027 -47.00001907 88.24306965 C-44.39704279 79.46503391 -44.39704279 79.46503391 -42.773983 75.32782555 C-42.44895798 74.49389275 -42.12393295 73.65995995 -41.78905869 72.80075645 C-41.4457048 71.93175713 -41.10235092 71.0627578 -40.74859238 70.16742516 C-40.38284103 69.23252251 -40.01708969 68.29761986 -39.64025497 67.33438683 C-38.46229903 64.32765006 -37.27808437 61.323443 -36.09234238 58.31976891 C-35.48791306 56.78632332 -35.48791306 56.78632332 -34.87127304 55.22189903 C-33.24621505 51.09980762 -31.62009887 46.97814638 -29.98913193 42.8583889 C-27.95524472 37.72037794 -25.93529205 32.57780422 -23.94878769 27.42128563 C-23.20265567 25.48906291 -22.44914832 23.55993498 -21.69195175 21.63202477 C-20.82101866 19.41388674 -19.96203464 17.19100215 -19.117733 14.96259117 C-16.43955495 8.23742589 -14.00274573 4.91367557 -7.75729346 1.15201032 C-5.0483708 0.03245371 -2.9308144 0.00416855 0 0 Z M12.40765762 36.25726891 C9.17345119 42.65844353 9.17345119 42.65844353 6.39300919 49.17279625 C6.05295853 50.0466497 5.71290787 50.92050316 5.36255264 51.82083702 C5.01134354 52.73571892 4.66013443 53.65060081 4.29828262 54.59320641 C3.92660965 55.55376945 3.55493668 56.5143325 3.17200089 57.50400352 C2.39364804 59.51850957 1.61724745 61.53377092 0.84271622 63.54974937 C-0.34755472 66.64582701 -1.5456924 69.73877905 -2.74468613 72.83148766 C-3.50166465 74.7935467 -4.25819137 76.75578014 -5.01421738 78.71820641 C-5.37352341 79.64523369 -5.73282944 80.57226097 -6.10302353 81.52737999 C-6.59418655 82.80979073 -6.59418655 82.80979073 -7.09527206 84.11810875 C-7.38521042 84.87119316 -7.67514877 85.62427757 -7.97387314 86.40018272 C-8.69766588 88.24729793 -8.69766588 88.24729793 -8.59234238 90.25726891 C93.04765762 90.25726891 194.68765762 90.25726891 299.40765762 90.25726891 C299.40765762 72.43726891 299.40765762 54.61726891 299.40765762 36.25726891 C204.69765762 36.25726891 109.98765762 36.25726891 12.40765762 36.25726891 Z M-140.59234238 126.25726891 C-140.59234238 216.67726891 -140.59234238 307.09726891 -140.59234238 400.25726891 C4.60765762 400.25726891 149.80765762 400.25726891 299.40765762 400.25726891 C299.40765762 309.83726891 299.40765762 219.41726891 299.40765762 126.25726891 C154.20765762 126.25726891 9.00765762 126.25726891 -140.59234238 126.25726891 Z " transform="translate(176.59234237670898,37.74273109436035)"/><path d="M0 0 C3.86349391 1.54539756 7.12420698 3.11206551 10.69921875 5.16796875 C11.81232422 5.80605469 12.92542969 6.44414062 14.07226562 7.1015625 C15.27738451 7.79680435 16.48246152 8.4921188 17.6875 9.1875 C18.94580927 9.91042484 20.20427532 10.63307685 21.46289062 11.35546875 C25.31122972 13.56574893 29.15595293 15.78226596 33 18 C34.68536865 18.97187256 34.68536865 18.97187256 36.40478516 19.96337891 C40.66234645 22.41909663 44.91945019 24.87559924 49.17504883 27.3347168 C58.53596545 32.74152068 67.92041515 38.10656329 77.3125 43.45898438 C84.56722735 47.59658006 91.79397106 51.77818751 99 56 C96.18356986 59.02837983 93.4279552 61.1074732 89.8359375 63.14453125 C88.80968262 63.73113525 87.78342773 64.31773926 86.72607422 64.92211914 C85.62021973 65.54594482 84.51436523 66.16977051 83.375 66.8125 C82.20940622 67.47644453 81.04421112 68.14108941 79.87939453 68.80639648 C77.4589128 70.18813926 75.03674658 71.5668567 72.61328125 72.94335938 C67.01892093 76.12377642 61.44759395 79.34414864 55.875 82.5625 C54.80564209 83.17931641 53.73628418 83.79613281 52.63452148 84.43164062 C45.22511937 88.7074796 37.82716513 93.00264672 30.4375 97.3125 C29.45297852 97.88637451 28.46845703 98.46024902 27.45410156 99.05151367 C22.88956917 101.7156929 18.33276876 104.39152139 13.79296875 107.09765625 C12.99898682 107.56969482 12.20500488 108.0417334 11.38696289 108.52807617 C9.92158983 109.40065719 8.45838631 110.27689621 6.99780273 111.1574707 C2.22194217 114 2.22194217 114 0 114 C0 76.38 0 38.76 0 0 Z " transform="translate(207,244)"/><path d="M0 0 C17.82 0 35.64 0 54 0 C54 17.82 54 35.64 54 54 C36.18 54 18.36 54 0 54 C0 36.18 0 18.36 0 0 Z " transform="translate(63,357)"/><path d="M0 0 C17.82 0 35.64 0 54 0 C54 17.82 54 35.64 54 54 C36.18 54 18.36 54 0 54 C0 36.18 0 18.36 0 0 Z " transform="translate(63,274)"/><path d="M0 0 C17.82 0 35.64 0 54 0 C54 17.82 54 35.64 54 54 C36.18 54 18.36 54 0 54 C0 36.18 0 18.36 0 0 Z " transform="translate(63,191)"/><path d="M0 0 C17.49 0 34.98 0 53 0 C53 17.82 53 35.64 53 54 C35.51 54 18.02 54 0 54 C0 36.18 0 18.36 0 0 Z " transform="translate(396,191)"/><path d="M0 0 C17.49 0 34.98 0 53 0 C53 17.49 53 34.98 53 53 C35.51 53 18.02 53 0 53 C0 35.51 0 18.02 0 0 Z " transform="translate(396,357)"/><path d="M0 0 C17.49 0 34.98 0 53 0 C53 17.49 53 34.98 53 53 C35.51 53 18.02 53 0 53 C0 35.51 0 18.02 0 0 Z " transform="translate(396,275)"/></svg>