<?xml version="1.0" encoding="UTF-8"?>
<!-- Generator: visioncortex VTracer -->
<svg id="svg" version="1.1" xmlns="http://www.w3.org/2000/svg" style="display: block;" viewBox="0 0 512 512"><path d="M0 0 C1.06096626 -0.01104769 2.12193252 -0.02209538 3.21504927 -0.03347784 C4.37962676 -0.02523708 5.54420424 -0.01699631 6.74407196 -0.00850582 C7.98198376 -0.01545135 9.21989556 -0.02239688 10.49531984 -0.02955288 C13.93353711 -0.04470524 17.37089184 -0.04186152 20.80907083 -0.03139985 C24.51603492 -0.02441962 28.22290972 -0.04039672 31.92984772 -0.05339718 C39.19250655 -0.07506186 46.45500885 -0.07490408 53.71768939 -0.06677163 C59.6190822 -0.06047722 65.52042928 -0.06160352 71.42182159 -0.06804371 C72.680678 -0.06939619 72.680678 -0.06939619 73.96496585 -0.070776 C75.6697478 -0.07262716 77.37452974 -0.07448972 79.07931167 -0.07636356 C95.07304237 -0.09295045 111.06668491 -0.08421509 127.06041032 -0.06737798 C141.70098012 -0.05267837 156.34134474 -0.06731147 170.98188812 -0.09614814 C186.00670137 -0.12552186 201.03141987 -0.13652047 216.05626059 -0.12696594 C217.7548456 -0.12594336 219.45343064 -0.12494875 221.15201569 -0.12398243 C221.9877983 -0.12350604 222.82358091 -0.12302965 223.68469027 -0.12253882 C229.58046156 -0.12037211 235.47614339 -0.13019234 241.37189484 -0.14475346 C248.55482482 -0.16224579 255.7374931 -0.16220421 262.92041266 -0.1394018 C266.58682878 -0.12823141 270.25278331 -0.12515947 273.91917992 -0.14370251 C277.88961851 -0.16352527 281.85932971 -0.14478551 285.82976532 -0.12203121 C286.99434281 -0.13386694 288.1589203 -0.14570267 289.35878801 -0.15789706 C297.04726879 -0.06787855 297.04726879 -0.06787855 300.50249481 2.61369514 C302.05031705 6.09931884 302.29013637 8.59670818 302.29485321 12.41375065 C302.30421315 13.43779696 302.30421315 13.43779696 302.31376219 14.48253107 C302.32968046 16.76354747 302.31709361 19.04349348 302.30449677 21.32451725 C302.30991844 22.96244777 302.31704136 24.60037342 302.325737 26.23828983 C302.34396797 30.6825243 302.33690383 35.12638723 302.32422066 39.57062817 C302.3140918 44.22212187 302.32348602 48.87358382 302.32976532 53.52507877 C302.33704206 61.33637547 302.32745333 69.14752087 302.30840302 76.95879459 C302.2866342 85.98901064 302.29368555 95.01886545 302.31570864 104.04907274 C302.33386189 111.80293447 302.33642133 119.55668746 302.32595396 127.31056356 C302.31971861 131.94130754 302.31888452 136.57188173 302.33209991 141.20261478 C302.34365672 145.5562636 302.33563598 149.90944678 302.31252289 154.26304531 C302.30723486 155.86059833 302.30875122 157.45819055 302.31757355 159.05572796 C302.32850972 161.23720222 302.31479136 163.41718577 302.29485321 165.5985651 C302.29259106 167.42918365 302.29259106 167.42918365 302.2902832 169.2967844 C301.68780093 173.13811681 300.52753053 174.79238396 297.78691864 177.50615788 C294.1539875 178.74290039 292.54499911 178.85073991 289.03691864 177.25615788 C286.78691864 175.50615788 286.78691864 175.50615788 284.78691864 172.50615788 C284.54082298 169.70070457 284.54082298 169.70070457 284.54640961 166.22303104 C284.54227712 164.25204425 284.54227712 164.25204425 284.53806114 162.24123955 C284.54515486 160.77591524 284.55243065 159.31059181 284.55986786 157.8452692 C284.5604804 156.28298388 284.56021376 154.720698 284.55913734 153.15841293 C284.55868525 148.96922471 284.57028901 144.78015042 284.58435822 140.59098911 C284.59573595 136.66211424 284.59628379 132.73326729 284.59770966 128.80437565 C284.60821033 117.30912126 284.63613256 105.81388814 284.66191864 94.31865788 C284.70316864 68.64053288 284.74441864 42.96240788 284.78691864 16.50615788 C193.37691864 16.50615788 101.96691864 16.50615788 7.78691864 16.50615788 C7.81012177 37.39025944 7.83332489 58.274361 7.85723114 79.79131413 C7.86745287 93.03936133 7.87717616 106.28740611 7.88457489 119.53545475 C7.88848997 126.49891513 7.89253075 133.46237542 7.89678192 140.42583561 C7.89730942 141.29845734 7.89783692 142.17107907 7.8983804 143.07014388 C7.90705252 157.11364741 7.92280537 171.15713437 7.94122423 185.20062811 C7.96000136 199.63890658 7.97105179 214.07717645 7.97509563 228.51546663 C7.97782457 237.40734594 7.98640807 246.29917843 8.00275157 255.19104331 C8.01341518 261.30849229 8.01649834 267.42591745 8.01392139 273.54337502 C8.0126545 277.0600941 8.01443948 280.57673202 8.02532959 284.09343624 C8.13128676 324.29346674 3.83188931 361.06522571 -19.86127472 394.74199772 C-20.4895668 395.63607334 -21.11785889 396.53014896 -21.76519012 397.45131779 C-22.24299423 398.12941502 -22.72079834 398.80751225 -23.21308136 399.50615788 C-21.8116432 399.50974041 -21.8116432 399.50974041 -20.38189316 399.51339531 C2.33522239 399.57214936 25.05223154 399.64800672 47.76922989 399.74187279 C58.7549341 399.7868681 69.74060563 399.82627412 80.72637177 399.85259342 C90.29983174 399.87554328 99.87318859 399.90890746 109.44656682 399.95485944 C114.51717369 399.97883235 119.58767817 399.99753443 124.65834045 400.00377178 C129.42882171 400.00980426 134.19904084 400.02973733 138.9694252 400.06043339 C140.7221889 400.06924316 142.47498681 400.07293014 144.22777176 400.07116604 C146.61764529 400.06951986 149.00671346 400.08615558 151.39647675 400.10743046 C152.09297797 400.10258288 152.78947919 400.09773531 153.50708652 400.09274083 C156.49526396 400.1367601 158.54822786 400.37565629 161.19022751 401.82014084 C163.73867266 404.51115719 163.72451592 406.88679988 163.78691864 410.50615788 C162.44129465 413.45371519 161.7013732 415.0489306 158.78691864 416.50615788 C156.10053583 416.61060708 153.43969727 416.65395359 150.75276947 416.6533289 C149.9126711 416.65700558 149.07257272 416.66068227 148.20701683 416.66447037 C145.37573452 416.67553429 142.54448889 416.6793556 139.71318817 416.68315983 C137.6898512 416.68942234 135.66651539 416.69606894 133.64318085 416.70307255 C128.13494592 416.72049979 122.62671967 416.73103858 117.11846399 416.73927808 C113.68011606 416.74442358 110.24177085 416.75049945 106.80342484 416.75678921 C96.05422662 416.77584436 85.30503531 416.79007594 74.55582345 416.79840118 C62.13127176 416.8081819 49.70689784 416.83452192 37.28240883 416.87490207 C27.68917788 416.9050151 18.09599803 416.91986539 8.50272071 416.92318219 C2.76808984 416.9255378 -2.9663512 416.93456464 -8.70093155 416.95964336 C-14.09356072 416.98284555 -19.48587399 416.98718904 -24.87854004 416.97688198 C-26.86031772 416.97638462 -28.84211053 416.98276353 -30.82384109 416.99643803 C-33.52459891 417.01403483 -36.22420792 417.00711154 -38.9249649 416.99390507 C-39.71348465 417.00487431 -40.50200439 417.01584356 -41.31441867 417.02714521 C-44.85270717 416.98522716 -46.82202935 416.80540732 -49.67249489 414.62411118 C-51.52360941 412.07925298 -52.13792172 410.66286287 -52.21308136 407.50615788 C-50.89598851 403.71951592 -49.0814208 401.26462114 -46.21308136 398.56865788 C-21.5645942 374.75043555 -10.81201193 338.95956346 -10.15457511 305.5313313 C-10.06333828 297.39541117 -10.06814267 289.25907052 -10.07110894 281.12274086 C-10.07132645 277.41123272 -10.06572608 273.69973291 -10.06070709 269.9882288 C-10.05263941 263.57312178 -10.04766638 257.15801867 -10.04441643 250.74290752 C-10.03889278 240.60450049 -10.02197178 230.46612656 -10.00307465 220.32773685 C-9.99672022 216.85269361 -9.99041159 213.37765028 -9.98409748 209.90260696 C-9.98172184 208.60050481 -9.98172184 208.60050481 -9.9792982 207.27209756 C-9.96140633 197.41856077 -9.94515411 187.5650217 -9.93012238 177.71148014 C-9.9287465 176.81186501 -9.92737063 175.91224989 -9.92595307 174.9853737 C-9.90396607 160.36821491 -9.89325045 145.75106481 -9.88575163 131.13389239 C-9.87768828 116.1087144 -9.85443273 101.08361075 -9.81779796 86.0584752 C-9.79576364 76.79777663 -9.78611107 67.5372308 -9.79229829 58.27650734 C-9.79546631 51.94156403 -9.78418654 45.60675168 -9.76140388 39.27184889 C-9.74870787 35.61554958 -9.74260043 31.95954199 -9.75382042 28.30323124 C-9.76581343 24.34439783 -9.74713129 20.38605425 -9.72533417 16.42725468 C-9.73799797 14.685807 -9.73799797 14.685807 -9.75091761 12.90917856 C-9.74008672 11.85151259 -9.72925583 10.79384662 -9.71809673 9.70413017 C-9.71711992 8.7903003 -9.71614312 7.87647043 -9.71513671 6.93494874 C-8.59653603 1.52349932 -5.15775628 0.0067034 0 0 Z " transform="translate(96.21308135986328,47.493842124938965)"/><path d="M0 0 C2.26115271 1.71167679 4.44061767 3.48927618 6.609375 5.31640625 C7.40988281 5.97125 8.21039063 6.62609375 9.03515625 7.30078125 C27.51643405 23.05154367 39.49128946 46.30237989 42.609375 70.31640625 C44.13870721 93.16702385 41.91622883 112.88136562 31.609375 133.31640625 C31.08601562 134.363125 30.56265625 135.40984375 30.0234375 136.48828125 C16.89199873 160.70137322 -6.27965599 177.41808443 -32.25390625 185.57421875 C-51.31877505 190.94434923 -73.61041436 190.57647646 -92.390625 184.31640625 C-93.51855469 183.95417969 -94.64648438 183.59195313 -95.80859375 183.21875 C-107.78968012 178.99602541 -118.70308287 172.50765474 -128.390625 164.31640625 C-129.07253906 163.75566406 -129.75445312 163.19492187 -130.45703125 162.6171875 C-135.2323711 158.63291405 -135.2323711 158.63291405 -136.390625 156.31640625 C-136.95934538 149.26427355 -136.95934538 149.26427355 -134.890625 145.81640625 C-132.13789139 144.16476608 -129.9521045 143.44978872 -126.71875 143.60546875 C-122.47984619 144.89989911 -119.52770172 147.98335326 -116.25 150.8671875 C-96.60549403 167.693834 -73.49330881 171.78972865 -48.390625 170.31640625 C-26.51110673 167.69086406 -7.09413968 155.25013246 6.890625 138.59375 C13.47111391 129.8746022 18.26963175 120.70250174 21.609375 110.31640625 C21.9290625 109.37152344 22.24875 108.42664063 22.578125 107.453125 C28.6656565 86.17494776 25.0359221 62.99249819 14.61328125 43.83984375 C2.85582644 22.95612759 -15.03053117 8.61926077 -38.015625 1.87890625 C-60.28443951 -4.01889142 -84.03602387 -1.1142403 -104.0625 10.35546875 C-123.36887894 21.99892568 -135.41920455 38.46188205 -143.390625 59.31640625 C-142.730625 58.98640625 -142.070625 58.65640625 -141.390625 58.31640625 C-137.05735326 57.82584718 -135.07062156 57.83896186 -131.453125 60.37890625 C-129.390625 63.31640625 -129.390625 63.31640625 -128.515625 66.50390625 C-129.91390666 72.59641919 -134.04359342 76.00055854 -138.390625 80.31640625 C-139.37246053 81.32027963 -140.35290305 82.3255171 -141.33203125 83.33203125 C-150.85528113 93.04546321 -150.85528113 93.04546321 -155.578125 93.87890625 C-161.19415146 93.05031218 -163.45824574 90.24878551 -167.390625 86.31640625 C-168.65835023 85.12827838 -169.92805998 83.94226616 -171.19921875 82.7578125 C-172.57705851 81.44562314 -173.95334459 80.13180055 -175.328125 78.81640625 C-176.00359375 78.18790771 -176.6790625 77.55940918 -177.375 76.91186523 C-180.58757188 73.76840291 -182.21793436 71.95575709 -183.4140625 67.52734375 C-183.38702261 63.82287887 -182.67619519 62.19453167 -180.390625 59.31640625 C-177.09035849 57.66627299 -173.92707744 57.52778968 -170.390625 58.31640625 C-167.39743899 60.3456849 -164.88964787 62.71104198 -162.390625 65.31640625 C-162.27847656 64.16398437 -162.16632813 63.0115625 -162.05078125 61.82421875 C-161.49109199 57.39537328 -160.33121594 53.3844711 -158.828125 49.19140625 C-158.56563965 48.45784912 -158.3031543 47.72429199 -158.03271484 46.96850586 C-148.81069135 22.22211837 -129.22544397 1.54992646 -105.40112305 -9.66015625 C-70.93351774 -25.06280197 -30.92800253 -21.78099525 0 0 Z " transform="translate(424.390625,275.68359375)"/><path d="M0 0 C1.1488333 -0.00445668 1.1488333 -0.00445668 2.32087535 -0.0090034 C4.90107685 -0.01771229 7.48123208 -0.01920049 10.06144714 -0.02069092 C11.90582377 -0.02531756 13.75019943 -0.030342 15.59457397 -0.03573608 C20.61529193 -0.04887723 25.63599651 -0.05530841 30.65672898 -0.05974674 C33.79155741 -0.06267479 36.92638215 -0.06677909 40.06120872 -0.07125092 C49.8637426 -0.08493054 59.66626809 -0.09459484 69.46881086 -0.09845281 C80.79474494 -0.10293445 92.12055838 -0.12048533 103.44645578 -0.1494534 C112.19385045 -0.17105188 120.94121113 -0.18115611 129.68863219 -0.18249393 C134.91632734 -0.1835433 140.14390917 -0.18947911 145.37157631 -0.20731354 C150.2889468 -0.22376245 155.20611839 -0.22596521 160.12350655 -0.21717453 C161.92909019 -0.21640244 163.73468438 -0.22076944 165.54024124 -0.23063278 C168.0040352 -0.24330327 170.46711954 -0.23750245 172.9309082 -0.22705078 C174.00426295 -0.23913539 174.00426295 -0.23913539 175.09930164 -0.25146413 C179.4464825 -0.2082947 182.19588572 0.47508784 185.65592957 3.14044189 C187.22064189 6.26986655 187.35294914 9.75126413 186.65592957 13.14044189 C185.11047268 15.23766994 185.11047268 15.23766994 182.65592957 17.14044189 C179.95397127 17.53557658 177.65808905 17.68567143 174.9574585 17.65510559 C173.78768594 17.66552388 173.78768594 17.66552388 172.59428161 17.67615265 C169.97855452 17.69446347 167.36373022 17.68414734 164.74797058 17.67388916 C162.87373677 17.6809456 160.99950867 17.68968945 159.12528992 17.69999695 C154.0322852 17.7225319 148.93959064 17.71954157 143.84655499 17.71067548 C139.59689273 17.70557152 135.34728906 17.71285336 131.09763283 17.72014755 C121.07331199 17.73715971 111.04914332 17.73356755 101.02482605 17.71685791 C90.67845596 17.6999346 80.33250771 17.71577113 69.9861837 17.74808079 C61.10708572 17.77475954 52.22811918 17.78205734 43.34898514 17.77356571 C38.04414157 17.76863157 32.73955187 17.77087849 27.43474007 17.79135323 C22.44660325 17.80968335 17.45907413 17.80378425 12.47097015 17.77915382 C10.63959241 17.77413746 8.80816858 17.77765704 6.97682762 17.79030228 C4.47764451 17.80619455 1.98047192 17.79132014 -0.51861572 17.76863098 C-1.24449416 17.78046671 -1.9703726 17.79230244 -2.71824735 17.80449682 C-6.58795498 17.73305146 -8.23159274 17.22999051 -11.2980051 14.78868008 C-13.34407043 12.14044189 -13.34407043 12.14044189 -13.90657043 9.14044189 C-13.22049386 5.48136685 -11.9167273 3.78876514 -9.34407043 1.14044189 C-6.35107154 -0.35605755 -3.28241668 -0.00393785 0 0 Z " transform="translate(155.3440704345703,147.85955810546875)"/><path d="M0 0 C0.78463749 -0.00709439 1.56927498 -0.01418877 2.37768936 -0.02149814 C5.00977655 -0.03911591 7.64039436 -0.0209551 10.27246094 -0.00291443 C12.15816929 -0.00805182 14.04387284 -0.01533174 15.92956543 -0.02459717 C21.05358084 -0.04314229 26.17707723 -0.03015292 31.30107117 -0.01050687 C36.6590538 0.00585524 42.01700292 -0.00292986 47.375 -0.00802612 C56.37345693 -0.01254981 65.37170617 0.00333984 74.37011719 0.03126526 C84.7789513 0.06331834 95.1874108 0.06330228 105.59627151 0.04605049 C115.60227412 0.03019611 125.60813916 0.03691197 135.61413574 0.0539875 C139.87564752 0.06086671 144.13704931 0.05981663 148.39855957 0.05244255 C153.41537361 0.04479103 158.43176044 0.05686883 163.44850159 0.08429146 C165.29157747 0.09118828 167.13469316 0.09125942 168.97776794 0.08407593 C171.49021543 0.07541066 174.0013356 0.09128645 176.51367188 0.11352539 C177.2463541 0.10528462 177.97903633 0.09704386 178.73392105 0.08855337 C182.17651122 0.14495576 183.95403685 0.39255121 186.70758057 2.53535557 C188.38839475 4.80590717 188.80041956 5.83883748 188.75683594 8.62818909 C188.77230469 9.61818909 188.77230469 9.61818909 188.78808594 10.62818909 C187.99084958 13.62954949 186.70356451 14.72414789 184.25683594 16.62818909 C181.54068481 17.02329765 179.22856618 17.17338827 176.51367188 17.14285278 C175.72903439 17.14979831 174.9443969 17.15674384 174.13598251 17.16389984 C171.50410371 17.18221127 168.8731221 17.17189438 166.24121094 17.16163635 C164.35550256 17.1686927 162.46979985 17.17743652 160.58410645 17.18774414 C155.46017868 17.21027854 150.33655921 17.20728912 145.21260071 17.19842267 C140.93799102 17.19331925 136.6634396 17.2006 132.38883591 17.20789474 C122.30702388 17.22490629 112.22536317 17.22131484 102.14355469 17.2046051 C91.73468161 17.18767666 81.32622767 17.20352551 70.91740036 17.23582798 C61.98651394 17.26249617 53.05575822 17.26980755 44.12483597 17.2613129 C38.78816679 17.2563763 33.45174996 17.25863906 28.1151123 17.27910042 C23.09825249 17.29741437 18.08199732 17.29155141 13.06517029 17.26690102 C11.2220846 17.26187974 9.37895317 17.26541687 7.53590393 17.27804947 C5.02323469 17.29391178 2.51257329 17.27909589 0 17.25637817 C-1.09902334 17.27413177 -1.09902334 17.27413177 -2.22024918 17.29224402 C-5.95492521 17.22344431 -7.457987 16.90163025 -10.19586182 14.27642727 C-12.10177458 11.01442015 -12.36339041 9.34954716 -11.74316406 5.62818909 C-8.67665115 0.37979201 -5.72100064 -0.09241688 0 0 Z " transform="translate(153.7431640625,202.37181091308594)"/><path d="M0 0 C2.74560547 1.71826172 2.74560547 1.71826172 5 5 C5.47009473 9.3203562 5.07504221 13.55858597 4.7578125 17.8828125 C4.63688805 20.51075658 4.52377631 23.13766566 4.42382812 25.76635742 C4.39672571 26.44653333 4.3696233 27.12670923 4.3416996 27.82749653 C2.60700722 54.683943 2.60700722 54.683943 13.81619263 77.97613525 C18.82988968 83.01685831 24.45087672 87.41677793 30.42382812 91.26245117 C33 93 33 93 34 95 C34.49055907 99.33327174 34.47744439 101.32000344 31.9375 104.9375 C29 107 29 107 25.6875 107.75 C16.72080216 105.92626485 9.12895226 95.31517428 2.77026367 88.95556641 C1.04688622 87.23440631 -0.68438324 85.52144382 -2.41601562 83.80859375 C-3.51611248 82.71142606 -4.61573949 81.61378703 -5.71484375 80.515625 C-6.48972389 79.75152313 -6.48972389 79.75152313 -7.28025818 78.97198486 C-11.63136667 74.59267128 -12.12523995 71.72928841 -12.16113281 65.68017578 C-12.17074036 64.3751712 -12.1803479 63.07016663 -12.19024658 61.72561646 C-12.19509446 60.29885025 -12.19937331 58.87208201 -12.203125 57.4453125 C-12.20887866 55.98184203 -12.21463636 54.51837157 -12.22039795 53.05490112 C-12.23089966 49.98662973 -12.2367478 46.91838449 -12.24023438 43.85009766 C-12.24571852 39.92365145 -12.269748 35.99755212 -12.29820633 32.07121468 C-12.31685422 29.04799396 -12.32203944 26.02485647 -12.32357025 23.0015831 C-12.32659228 21.55433124 -12.33460569 20.10708068 -12.34775543 18.65988541 C-12.36485954 16.63286479 -12.36108456 14.60570075 -12.35644531 12.57861328 C-12.36009094 11.42628204 -12.36373657 10.27395081 -12.36749268 9.08670044 C-11.95752161 5.64320901 -11.05931753 3.7642254 -9 1 C-5.86128812 -0.56935594 -3.46144178 -0.35201103 0 0 Z " transform="translate(367,291)"/><path d="M0 0 C1.07695129 -0.0071553 2.15390259 -0.01431061 3.26348877 -0.02168274 C6.82119232 -0.03858342 10.3776384 -0.01915888 13.93530273 0.00219727 C16.40722254 0.00136876 18.87914229 -0.00108991 21.35105896 -0.00511169 C26.5302693 -0.00797058 31.70904739 0.00674234 36.88818359 0.03417969 C43.53207517 0.06827964 50.17519461 0.06223875 56.81912327 0.04351711 C61.92260696 0.03295748 67.02591044 0.04187537 72.12937737 0.05690193 C74.57943118 0.06209057 77.02950376 0.06159372 79.47955513 0.05535698 C82.90084555 0.04991686 86.32102375 0.07024246 89.7421875 0.09765625 C91.26573097 0.08786743 91.26573097 0.08786743 92.8200531 0.07788086 C99.65959216 0.17123563 99.65959216 0.17123563 102.9080658 2.48085022 C104.74580272 5.30679111 105.23755477 7.25785967 105.30639648 10.63110352 C103.65253099 14.46110783 102.12725387 16.08823631 98.30639648 17.63110352 C96.15711308 17.88557911 96.15711308 17.88557911 93.79689026 17.89179993 C92.89830292 17.89888474 91.99971558 17.90596954 91.07389832 17.91326904 C90.09560562 17.91079163 89.11731293 17.90831421 88.109375 17.90576172 C87.07319031 17.91087265 86.03700562 17.91598358 84.96942139 17.92124939 C81.54132322 17.93515905 78.11342578 17.9341876 74.68530273 17.93188477 C72.30403061 17.93577085 69.92275918 17.94010534 67.54148865 17.94487 C62.54895786 17.95233511 57.55649779 17.95203873 52.56396484 17.94677734 C46.16353338 17.94098151 39.76339118 17.95791532 33.36300755 17.98112202 C28.44482224 17.99584751 23.52670679 17.99673267 18.60850334 17.99361229 C16.24857955 17.99412607 13.88865191 17.99937435 11.52874947 18.00942421 C8.22991208 18.02174843 4.9316407 18.01502071 1.6328125 18.00341797 C0.16840981 18.01488358 0.16840981 18.01488358 -1.32557678 18.02658081 C-6.23551712 17.98837404 -9.76751011 17.93173349 -13.69360352 14.63110352 C-16.03910026 11.1128584 -16.27351754 9.77334657 -15.69360352 5.63110352 C-11.41192178 -0.48596123 -6.85902548 -0.07911548 0 0 Z " transform="translate(157.693603515625,256.368896484375)"/><path d="M0 0 C0.69495575 -0.0087616 1.3899115 -0.01752319 2.10592651 -0.02655029 C4.39287587 -0.04847679 6.67787631 -0.03401834 8.96484375 -0.01708984 C10.55998097 -0.02045999 12.15511569 -0.02531426 13.75024414 -0.03158569 C17.08927927 -0.03894778 20.42764447 -0.02827386 23.76660156 -0.00488281 C28.04089175 0.02360567 32.31361222 0.00719798 36.58784485 -0.02274513 C39.88053151 -0.04083674 43.17284766 -0.03505179 46.46554565 -0.02210617 C48.04117012 -0.01877725 49.61682852 -0.02284121 51.19241333 -0.03450394 C53.39740729 -0.0472448 55.59988075 -0.02779692 57.8046875 0 C59.68401978 0.00596695 59.68401978 0.00596695 61.60131836 0.01205444 C65.80672151 0.8209204 67.30137056 2.30522703 69.90234375 5.64697266 C70.43651278 9.45292697 70.45803731 11.64143193 68.58984375 15.02197266 C65.25609335 18.23225082 61.58642493 17.77858349 57.19946289 17.79223633 C56.52270004 17.79559494 55.84593719 17.79895355 55.14866638 17.80241394 C52.91159225 17.81191252 50.67459304 17.81386644 48.4375 17.81494141 C46.88195261 17.81815455 45.32640552 17.82151867 43.77085876 17.82502747 C40.51007385 17.83101585 37.24931542 17.83286764 33.98852539 17.83227539 C29.81095781 17.83217374 25.63356007 17.84583026 21.45603275 17.8630476 C18.24327311 17.87416736 15.03055455 17.87619461 11.81777763 17.87566566 C10.27760673 17.87684565 8.73743475 17.88126849 7.19728279 17.88899803 C5.04294056 17.8987983 2.88896734 17.89592 0.73461914 17.88989258 C-0.49099228 17.8913176 -1.7166037 17.89274261 -2.97935486 17.89421082 C-5.99463181 17.65514107 -7.63246901 17.34898176 -10.09765625 15.64697266 C-12.59797279 11.89649784 -12.63369179 10.08841 -12.09765625 5.64697266 C-8.40872007 0.89160544 -5.93218163 0.0188349 0 0 Z " transform="translate(154.09765625,310.35302734375)"/></svg>