<?xml version="1.0" encoding="UTF-8"?>
<!-- Generator: visioncortex VTracer -->
<svg id="svg" version="1.1" xmlns="http://www.w3.org/2000/svg" style="display: block;" viewBox="0 0 512 512"><path d="M0 0 C0.85164346 -0.00367669 1.70328693 -0.00735338 2.58073777 -0.01114148 C5.45114462 -0.022206 8.3215153 -0.02602682 11.19194031 -0.02983093 C13.24321102 -0.03609344 15.29448059 -0.04274005 17.3457489 -0.04974365 C22.93049487 -0.06717195 28.51523227 -0.07771017 34.09999871 -0.08594918 C37.58659722 -0.09109492 41.07319304 -0.09717081 44.55978966 -0.10346031 C55.46116172 -0.12251655 66.36252698 -0.13674738 77.2639125 -0.14507228 C89.86164466 -0.1548506 102.45920139 -0.18118391 115.05687171 -0.22157317 C124.785149 -0.25169628 134.51337589 -0.2665375 144.24169892 -0.26985329 C150.05628526 -0.27220792 155.87068427 -0.28122209 161.68522072 -0.30631447 C167.15418383 -0.32953392 172.62283546 -0.33385309 178.09183502 -0.32355309 C180.10060599 -0.32305614 182.10939197 -0.32942314 184.11811638 -0.34310913 C186.85792938 -0.36073377 189.5966131 -0.35376859 192.33642578 -0.34057617 C193.5323454 -0.35703004 193.5323454 -0.35703004 194.75242501 -0.37381631 C198.50095103 -0.33015749 200.64188561 0.00808195 203.82882977 2.05265522 C207.189434 5.52030499 207.2481593 8.213056 207.21806335 12.88545227 C206.64811969 16.47238031 204.65642787 18.01555996 201.85868835 20.14717102 C198.8002099 21.67641025 195.60831343 21.28047321 192.25318909 21.26742554 C191.45927108 21.26827996 190.66535307 21.26913439 189.84737694 21.2700147 C187.17257667 21.27166898 184.49783837 21.26614898 181.82304382 21.26069641 C179.91144309 21.2604145 177.99984225 21.26057235 176.08824158 21.26113892 C170.88603716 21.26142675 165.68385563 21.25553235 160.48165655 21.24856496 C155.04972797 21.24232902 149.61779892 21.24172743 144.18586731 21.24053955 C133.89404874 21.23742695 123.60224074 21.22921451 113.31042683 21.21919006 C101.59597356 21.20802673 89.88151979 21.20251792 78.16706252 21.19749463 C54.06426391 21.18703184 29.96147981 21.16868723 5.85868835 21.14717102 C5.85868835 40.61717102 5.85868835 60.08717102 5.85868835 80.14717102 C161.61868835 80.14717102 317.37868835 80.14717102 477.85868835 80.14717102 C477.85868835 60.67717102 477.85868835 41.20717102 477.85868835 21.14717102 C472.01327332 21.16811829 466.16785828 21.18906555 460.14530945 21.21064758 C440.85896381 21.27684707 421.57261377 21.32128191 402.28618431 21.35441971 C390.58975308 21.37505032 378.89342944 21.40318057 367.19706726 21.44892883 C357.00324832 21.48878118 346.8095073 21.5146002 336.61561263 21.523525 C331.21733623 21.52874243 325.81928273 21.54101588 320.42107773 21.57009125 C315.34037359 21.59723489 310.25998424 21.60561807 305.17921448 21.59960175 C303.31437596 21.60070245 301.44952695 21.60866253 299.58475113 21.62399292 C297.03784941 21.64390456 294.49213508 21.63910624 291.94520569 21.62818909 C291.20783877 21.63984045 290.47047185 21.65149182 289.71076047 21.66349626 C284.6463091 21.60484742 281.7564436 20.34046524 277.85868835 17.14717102 C276.12999057 13.68977545 276.3690194 9.92741534 276.85868835 6.14717102 C278.65262503 3.27687233 279.84132112 1.65585464 282.85868835 0.14717102 C285.58068027 0.04267102 288.27746397 -0.00062432 291 0 C291.85164346 -0.00367669 292.70328693 -0.00735338 293.58073777 -0.01114148 C296.45114462 -0.022206 299.3215153 -0.02602682 302.19194031 -0.02983093 C304.24321102 -0.03609344 306.29448059 -0.04274005 308.3457489 -0.04974365 C313.93049487 -0.06717195 319.51523227 -0.07771017 325.09999871 -0.08594918 C328.58659722 -0.09109492 332.07319304 -0.09717081 335.55978966 -0.10346031 C346.46116172 -0.12251655 357.36252698 -0.13674738 368.2639125 -0.14507228 C380.86164466 -0.1548506 393.45920139 -0.18118391 406.05687171 -0.22157317 C415.785149 -0.25169628 425.51337589 -0.2665375 435.24169892 -0.26985329 C441.05628526 -0.27220792 446.87068427 -0.28122209 452.68522072 -0.30631447 C458.15418383 -0.32953392 463.62283546 -0.33385309 469.09183502 -0.32355309 C471.10060599 -0.32305614 473.10939197 -0.32942314 475.11811638 -0.34310913 C477.85792938 -0.36073377 480.5966131 -0.35376859 483.33642578 -0.34057617 C484.5323454 -0.35703004 484.5323454 -0.35703004 485.75242501 -0.37381631 C489.50095103 -0.33015749 491.64188561 0.00808195 494.82882977 2.05265522 C498.29172976 5.62585918 497.98596212 7.98100328 497.99290943 12.87612629 C497.99526166 13.57929945 497.99761389 14.28247261 498.0000374 15.00695404 C498.00674777 17.38698564 498.00626857 19.76696289 498.00585938 22.14700317 C498.00915673 23.86108362 498.01288202 25.5751633 498.01700085 27.28924197 C498.0270435 32.01812608 498.03074127 36.74699749 498.03339016 41.47589076 C498.03728648 46.56871052 498.04686522 51.66152017 498.05560303 56.7543335 C498.07538572 69.06211913 498.08543559 81.36990561 498.09433082 93.67770317 C498.09871046 99.46845191 498.10407807 105.25919973 498.10931969 111.04994774 C498.12633319 130.29041892 498.14082872 149.53088952 498.14806843 168.77136707 C498.14997843 173.76683363 498.15189875 178.76230018 498.15385437 183.75776672 C498.15433811 184.99941991 498.15482185 186.2410731 498.15532025 187.52035215 C498.16362562 207.64717245 498.18897055 227.77393341 498.22143505 247.90072779 C498.25446743 268.54727302 498.27251369 289.19378806 498.27571267 309.84035987 C498.27788123 321.43965977 498.28668044 333.03887314 498.31217384 344.63814735 C498.33382864 354.51390163 498.34195705 364.38954835 498.33220706 374.26532368 C498.32764727 379.30692948 498.32964568 384.34831311 498.34896851 389.38988876 C498.36649346 394.00206877 498.36568989 398.61386279 498.35007121 403.22604629 C498.34767883 404.89767067 498.35210238 406.56932104 498.36389986 408.2409055 C498.37891345 410.5079751 498.36942123 412.77365828 498.35367298 415.04069233 C498.35464979 416.30141884 498.3556266 417.56214535 498.35663301 418.8610757 C497.768881 422.73983838 496.5892855 424.38491135 493.85868835 427.14717102 C490.69452288 428.72925376 487.29237838 428.2878722 483.81787395 428.2813921 C482.97287741 428.28374433 482.12788086 428.28609656 481.25727835 428.28852007 C478.39480339 428.29523494 475.53237356 428.2947511 472.66989136 428.29434204 C470.60932782 428.29763911 468.54876493 428.30136434 466.48820287 428.30548352 C460.80158676 428.31552934 455.11498121 428.31922445 449.42835748 428.32187283 C443.30485417 428.3257682 437.18135928 428.33534699 431.05786133 428.34408569 C416.95808448 428.36293557 402.85830957 428.37310897 388.75852367 428.38154637 C381.79424101 428.38575038 374.82995921 428.39097268 367.86567728 428.3962309 C344.03637762 428.41412177 320.20707771 428.42911908 296.37777233 428.43655109 C294.88133034 428.43702585 293.38488834 428.43750174 291.88844635 428.43797876 C291.14633029 428.43821513 290.40421423 428.43845151 289.6396098 428.43869505 C285.87954679 428.43989627 282.11948378 428.44111171 278.35942078 428.44233704 C277.24011811 428.44269726 277.24011811 428.44269726 276.09820327 428.44306476 C251.89559009 428.45096059 227.69302589 428.47439791 203.4904341 428.50689298 C177.91504355 428.54116867 152.33968165 428.5609001 126.76426774 428.56419533 C123.95824546 428.56461289 121.1522232 428.56509246 118.34620094 428.56561852 C117.65525582 428.56574171 116.96431069 428.5658649 116.25242784 428.56599182 C105.11967765 428.5683266 93.98698421 428.58400191 82.85425427 428.60446036 C71.6702452 428.62468745 60.48630347 428.62987627 49.30227324 428.62068973 C43.2399473 428.61612802 37.17780612 428.61813951 31.11550522 428.63745117 C25.57073346 428.65496233 20.02628289 428.65418377 14.48150829 428.63855388 C12.47072139 428.63615939 10.45991295 428.64059563 8.44915917 428.65238253 C5.72471893 428.66736957 3.0014363 428.65792099 0.27702618 428.64215565 C-0.51143978 428.65237785 -1.29990574 428.66260006 -2.1122646 428.67313203 C-5.83547482 428.62581141 -7.94176037 428.27550351 -11.10495776 426.24123448 C-14.57680266 422.67099868 -14.26858099 420.31645611 -14.27553272 415.41821575 C-14.27906107 414.36345601 -14.27906107 414.36345601 -14.28266069 413.287388 C-14.28937107 410.9073564 -14.28889186 408.52737915 -14.28848267 406.14733887 C-14.29178002 404.43325842 -14.29550531 402.71917874 -14.29962415 401.00510007 C-14.30966679 396.27621596 -14.31336456 391.54734455 -14.31601346 386.81845129 C-14.31990977 381.72563152 -14.32948851 376.63282187 -14.33822632 371.54000854 C-14.35800901 359.23222291 -14.36805888 346.92443643 -14.37695411 334.61663887 C-14.38133375 328.82589013 -14.38670136 323.03514231 -14.39194298 317.2443943 C-14.40895648 298.00392312 -14.42345201 278.76345252 -14.43069172 259.52297497 C-14.43260172 254.52750841 -14.43452204 249.53204186 -14.43647766 244.53657532 C-14.4369614 243.29492213 -14.43744514 242.05326894 -14.43794354 240.77398989 C-14.44624891 220.64716959 -14.47159384 200.52040863 -14.50405834 180.39361425 C-14.53709072 159.74706902 -14.55513699 139.10055398 -14.55833596 118.45398217 C-14.56050452 106.85468227 -14.56930373 95.2554689 -14.59479713 83.65619469 C-14.61645193 73.78044041 -14.62458034 63.90479369 -14.61483035 54.02901836 C-14.61027056 48.98741257 -14.61226898 43.94602893 -14.6315918 38.90445328 C-14.64911675 34.29227327 -14.64831318 29.68047925 -14.63269451 25.06829575 C-14.63030212 23.39667137 -14.63472567 21.725021 -14.64652316 20.05343654 C-14.66153675 17.78636694 -14.65204452 15.52068376 -14.63629627 13.25364971 C-14.63727308 11.9929232 -14.63824989 10.73219669 -14.6392563 9.43326634 C-14.05150429 5.55450366 -12.87190879 3.90943069 -10.14131165 1.14717102 C-6.95317916 -0.44689522 -3.50182918 -0.00080302 0 0 Z M5.85868835 101.14717102 C5.85868835 202.12717102 5.85868835 303.10717102 5.85868835 407.14717102 C161.61868835 407.14717102 317.37868835 407.14717102 477.85868835 407.14717102 C477.85868835 306.16717102 477.85868835 205.18717102 477.85868835 101.14717102 C322.09868835 101.14717102 166.33868835 101.14717102 5.85868835 101.14717102 Z " transform="translate(14.141311645507813,41.85282897949219)"/><path d="M0 0 C10.13644761 8.23906872 15.56389634 19.45859402 18.75 31.9375 C19.98992407 47.12656987 17.31201976 58.15622153 9 71 C9.59425781 71.14695312 10.18851563 71.29390625 10.80078125 71.4453125 C27.1011501 75.85629878 39.54697218 85.77245417 48.0546875 100.28515625 C55.58923572 114.08631466 56.17490978 128.37207359 56.25 143.8125 C56.2809375 145.43188477 56.2809375 145.43188477 56.3125 147.08398438 C56.34230456 153.16038804 56.13070405 157.71869969 53 163 C49.65555695 166.25989165 47.06633545 166.37978939 42.48513794 166.39440918 C41.83258526 166.40050028 41.18003258 166.40659139 40.50770557 166.41286707 C38.32283083 166.42950562 36.13853835 166.4247203 33.95361328 166.41992188 C32.38641758 166.4272618 30.8192273 166.4358478 29.25204468 166.44558716 C24.99576828 166.46782139 20.73968537 166.47073286 16.48335886 166.46883965 C12.9296868 166.46872002 9.37605584 166.47728103 5.82239521 166.48561716 C-2.5622787 166.50485853 -10.94685304 166.50773257 -19.33154297 166.50097656 C-27.97947691 166.49433659 -36.62698424 166.51719653 -45.27483165 166.55429029 C-52.70087197 166.58498675 -60.12677505 166.59634734 -67.55287755 166.59245348 C-71.98756004 166.59038572 -76.42191066 166.59586896 -80.85653305 166.62034607 C-85.02801758 166.64260964 -89.19880878 166.64073911 -93.37029648 166.62041855 C-94.89971454 166.61700763 -96.42917923 166.62210126 -97.95853424 166.63640213 C-110.95218379 166.74950299 -110.95218379 166.74950299 -114.89407349 163.64904785 C-119.33354291 158.06463317 -118.22250077 151.24074593 -118.24023438 144.44360352 C-118.24980096 142.23348286 -118.28076357 140.02434995 -118.3125 137.81445312 C-118.40521082 125.69149135 -117.22785496 113.78610864 -111.5 102.875 C-111.15598145 102.21105225 -110.81196289 101.54710449 -110.45751953 100.86303711 C-102.20173632 85.70192 -88.31098957 75.37435831 -72 70 C-72.39832031 69.32195312 -72.79664063 68.64390625 -73.20703125 67.9453125 C-80.6423513 54.8837527 -83.50261265 41.99088239 -79.8125 27.125 C-75.32380049 13.28656695 -66.77333911 1.82030127 -53.81640625 -5.1796875 C-36.03081597 -13.62553106 -15.93517987 -11.38553741 0 0 Z M-55.453125 23.87109375 C-60.14200074 30.32421819 -60.95772252 37.16795802 -60 45 C-57.86428594 53.63471492 -54.60388537 59.75445108 -47.125 64.75 C-39.70825143 69.05337464 -31.778239 70.45985766 -23.41796875 68.34765625 C-15.07800744 65.36269314 -9.14141885 60.72560258 -5.0625 52.8125 C-1.52520889 45.19833101 -0.95912246 38.52151797 -3.5625 30.5 C-7.05761723 21.70740544 -12.15364263 16.86563059 -20.66796875 12.91015625 C-34.10998437 7.66394245 -46.6063766 13.2432522 -55.453125 23.87109375 Z M-86.3125 103.25 C-96.9784196 116.07065083 -97 127.99802276 -97 145 C-53.44 145 -9.88 145 35 145 C35 128.01812057 34.62193312 114.44771325 22.81640625 101.625 C11.69442631 91.67501364 0.3201147 89.53236605 -14.1875 89.6015625 C-15.53930823 89.59953544 -16.89111538 89.59661877 -18.24291992 89.59286499 C-21.06016571 89.58847128 -23.8771239 89.59477615 -26.69433594 89.60888672 C-30.27826339 89.62597726 -33.86151651 89.61612002 -37.44541931 89.59816933 C-40.23210594 89.58725077 -43.01863665 89.59081443 -45.80532837 89.5985527 C-47.76044155 89.60148444 -49.71556116 89.59248554 -51.6706543 89.5831604 C-65.2745222 89.68963196 -76.77668944 93.12379216 -86.3125 103.25 Z " transform="translate(187,192)"/><path d="M0 0 C1.48584002 -0.00576257 2.97167292 -0.0137046 4.45749092 -0.02363622 C8.53711184 -0.04451464 12.61614816 -0.03419015 16.69577122 -0.01870513 C21.09667999 -0.00739952 25.49748772 -0.02485039 29.89837646 -0.03860474 C38.51836924 -0.06085014 47.13814447 -0.05603017 55.75814581 -0.04154153 C62.7631188 -0.03025441 69.76803078 -0.02871611 76.77301025 -0.03416061 C77.76959502 -0.03492678 78.76617979 -0.03569294 79.7929641 -0.03648233 C81.81744053 -0.03808094 83.84191694 -0.039702 85.86639333 -0.04134528 C104.8546203 -0.0556066 123.84272662 -0.03920405 142.83093381 -0.01234345 C159.12742125 0.00999567 175.42373062 0.00611565 191.72021484 -0.01693726 C210.64000061 -0.04368849 229.55968061 -0.05423327 248.47948265 -0.03887594 C250.49655531 -0.03728317 252.51362799 -0.03571132 254.53070068 -0.03416061 C255.52316618 -0.03338924 256.51563168 -0.03261786 257.53817189 -0.03182311 C264.53558522 -0.02750408 271.53293152 -0.03479703 278.53033447 -0.04655838 C287.05665892 -0.06057439 295.58275319 -0.05680237 304.10905123 -0.03015466 C308.46023765 -0.01700433 312.81104015 -0.01188464 317.16222382 -0.02840042 C321.1446776 -0.04328812 325.12639123 -0.03513203 329.10877776 -0.00851266 C330.55014175 -0.00292259 331.99156814 -0.00578009 333.43289208 -0.0178916 C345.54807877 -0.11189498 345.54807877 -0.11189498 349.49172974 3.04569435 C352.46433293 6.60879024 353.04963647 9.07431276 352.65185547 13.63491821 C350.94220239 17.90905092 348.70438711 19.6057831 344.65185547 21.63491821 C341.74110985 22.0109657 341.74110985 22.0109657 338.45956421 22.01244164 C336.57867316 22.0241765 336.57867316 22.0241765 334.65978432 22.03614843 C333.27090959 22.02966246 331.88203617 22.0228925 330.49316406 22.01586914 C329.0157302 22.01932569 327.53829891 22.02409024 326.06087303 22.03005087 C321.99998935 22.04259093 317.93931678 22.03637688 313.87843227 22.02709222 C309.49936418 22.02031435 305.12033281 22.03077668 300.74127197 22.03903198 C292.16229638 22.05238501 283.58339945 22.04948459 275.00442076 22.04079406 C268.03327507 22.03402409 261.06215145 22.03309782 254.09100342 22.03636551 C252.60381603 22.03705506 252.60381603 22.03705506 251.08658445 22.03775854 C249.07257477 22.03871769 247.05856509 22.03969033 245.04455543 22.04067631 C226.15081787 22.0492348 207.25712395 22.03938887 188.36339355 22.02327521 C172.14507254 22.00987162 155.92681594 22.01219958 139.70849609 22.02603149 C120.88323467 22.0420792 102.05801152 22.04841079 83.23274422 22.0391947 C81.22606532 22.03823904 79.21938642 22.03729592 77.21270752 22.03636551 C76.22533454 22.03590268 75.23796157 22.03543986 74.2206682 22.034963 C67.25637608 22.03237068 60.29210819 22.03674932 53.32781982 22.04380417 C44.84285264 22.05221037 36.35796873 22.04995758 27.87301111 22.03396194 C23.54229046 22.02606735 19.21170876 22.02300779 14.88098907 22.03290939 C10.91845721 22.04183229 6.95619342 22.03696336 2.99368596 22.02097674 C1.55836161 22.0176187 0.12301473 22.01934591 -1.3122952 22.0266041 C-3.26013237 22.03570039 -5.20803277 22.02459407 -7.15585327 22.01244164 C-8.23876333 22.01195458 -9.32167339 22.01146752 -10.43739891 22.0109657 C-14.78344066 21.44948823 -17.39925531 19.74195563 -20.22314453 16.44741821 C-21.51488698 13.2180621 -21.52622162 11.10482171 -21.25830078 7.69741821 C-17.27435335 -1.33058284 -8.42941182 -0.07083271 0 0 Z " transform="translate(90.34814453125,388.3650817871094)"/><path d="M0 0 C1.67153893 -0.00788544 1.67153893 -0.00788544 3.37684631 -0.01593018 C7.05931628 -0.02913075 10.74135377 -0.0203915 14.42382812 -0.01025391 C16.98303307 -0.01227461 19.54223746 -0.01518603 22.10144043 -0.01895142 C27.46466079 -0.02337487 32.82772624 -0.01722926 38.19091797 -0.00292969 C44.38546997 0.0133961 50.57972571 0.00810726 56.77427053 -0.0084089 C62.74102329 -0.02367905 68.70768424 -0.02204269 74.67445374 -0.0132637 C77.21021059 -0.01126151 79.74597499 -0.01372163 82.28172302 -0.02070236 C85.82473825 -0.02831535 89.3671835 -0.01671387 92.91015625 0 C93.95965958 -0.00607269 95.0091629 -0.01214539 96.09046936 -0.0184021 C104.97709661 0.05931743 104.97709661 0.05931743 108.95507812 3.38818359 C111.54914172 6.41459112 112.18870435 8.56492975 111.89257812 12.45068359 C111.25863951 16.18387765 110.02675507 18.0611556 106.95507812 20.38818359 C104.54244788 21.59449872 103.00899583 21.52447636 100.31317139 21.54208374 C99.33463699 21.5506842 98.3561026 21.55928467 97.34791565 21.56814575 C96.27049606 21.5724057 95.19307648 21.57666565 94.08300781 21.58105469 C92.38527473 21.59332092 92.38527473 21.59332092 90.65324402 21.60583496 C86.89448583 21.6307193 83.13576548 21.64721268 79.37695312 21.66162109 C78.09546638 21.66694477 76.81397964 21.67226845 75.49365997 21.67775345 C70.10810323 21.69898948 64.72255883 21.71811907 59.33697128 21.72937584 C51.62211567 21.74560765 43.9077643 21.7787643 36.19309878 21.83577669 C30.11263494 21.87917734 24.03236859 21.89512409 17.95175934 21.90150833 C15.36655336 21.9082337 12.78135507 21.92348881 10.19625092 21.94739914 C6.57868483 21.97895013 2.96239362 21.97910169 -0.65527344 21.97167969 C-1.7245961 21.98808502 -2.79391876 22.00449036 -3.89564514 22.02139282 C-12.00216986 21.95326487 -12.00216986 21.95326487 -15.69036865 19.03140259 C-18.45705197 15.92552678 -19.12785588 14.5348839 -19.04492188 10.38818359 C-17.93244763 6.74174024 -17.01636236 4.23655546 -14.11804199 1.70541382 C-9.4599192 -0.29119546 -5.01699396 -0.0290296 0 0 Z " transform="translate(331.044921875,336.61181640625)"/><path d="M0 0 C1.70320908 -0.00569504 1.70320908 -0.00569504 3.44082642 -0.01150513 C7.19317262 -0.0189131 10.94474412 0.00247534 14.69702148 0.02490234 C17.30346078 0.02728655 19.90990182 0.02819214 22.51634216 0.02767944 C27.97795236 0.02955063 33.43933987 0.04689081 38.90087891 0.07421875 C45.21242228 0.10568345 51.52372203 0.11621429 57.83533818 0.11474764 C63.91209825 0.11352635 69.98876624 0.1239599 76.06550407 0.14033127 C78.64953063 0.14670298 81.23356436 0.15063903 83.81759834 0.15211868 C87.42539853 0.15644666 91.03289079 0.1739369 94.640625 0.1953125 C95.71242508 0.19440613 96.78422516 0.19349976 97.88850403 0.19256592 C99.36259735 0.20536087 99.36259735 0.20536087 100.86647034 0.21841431 C101.71908731 0.221766 102.57170427 0.22511768 103.45015812 0.22857094 C106.0081004 0.51401499 107.58817024 1.11016842 109.75561523 2.48583984 C112.11792014 5.90710902 113.0139805 8.51598794 112.69311523 12.61083984 C111.71666805 16.64682156 111.04713385 18.06560557 107.75561523 20.48583984 C104.87948209 21.44455089 103.057581 21.61776293 100.06938171 21.63301086 C99.10630096 21.64016617 98.14322021 21.64732147 97.1509552 21.6546936 C96.09583237 21.65738251 95.04070953 21.66007141 93.95361328 21.6628418 C92.28492188 21.67269859 92.28492188 21.67269859 90.58251953 21.68275452 C86.8941237 21.70249613 83.20576857 21.7141513 79.51733398 21.72412109 C78.25882944 21.72819662 77.0003249 21.73227215 75.70368385 21.73647118 C69.73107699 21.75518275 63.7584831 21.76974862 57.78585404 21.77808315 C50.89774745 21.78785467 44.00996228 21.81417454 37.12196892 21.85458404 C31.15098384 21.88840851 25.18007733 21.9002302 19.20899391 21.90428734 C16.67125072 21.90916364 14.13351123 21.92080711 11.59583092 21.93932533 C8.04555929 21.96362497 4.49612979 21.96276815 0.94580078 21.95581055 C-0.10324936 21.96862061 -1.1522995 21.98143066 -2.23313904 21.99462891 C-8.18953694 21.95205719 -11.76747238 21.5648666 -16.24438477 17.48583984 C-17.9387399 13.67354078 -18.40727678 11.40889457 -17.68188477 7.29833984 C-13.69048041 -0.51092954 -7.86911254 -0.08267252 0 0 Z " transform="translate(330.244384765625,233.51416015625)"/><path d="M0 0 C1.67153893 -0.00788544 1.67153893 -0.00788544 3.37684631 -0.01593018 C7.05931628 -0.02913075 10.74135377 -0.0203915 14.42382812 -0.01025391 C16.98303307 -0.01227461 19.54223746 -0.01518603 22.10144043 -0.01895142 C27.46466079 -0.02337487 32.82772624 -0.01722926 38.19091797 -0.00292969 C44.38546997 0.0133961 50.57972571 0.00810726 56.77427053 -0.0084089 C62.74102329 -0.02367905 68.70768424 -0.02204269 74.67445374 -0.0132637 C77.21021059 -0.01126151 79.74597499 -0.01372163 82.28172302 -0.02070236 C85.82473825 -0.02831535 89.3671835 -0.01671387 92.91015625 0 C93.95965958 -0.00607269 95.0091629 -0.01214539 96.09046936 -0.0184021 C104.97709661 0.05931743 104.97709661 0.05931743 108.95507812 3.38818359 C111.49499683 6.35142208 112.21193772 8.56577821 112.01757812 12.38818359 C111.76783692 15.56437939 110.79700427 16.56251282 108.60707092 18.97764587 C104.10680454 22.59456641 99.15112976 22.08010987 93.61303711 22.01928711 C92.47902466 22.02644241 91.34501221 22.03359772 90.17663574 22.04096985 C86.43440265 22.05785574 82.6933675 22.03845418 78.95117188 22.01708984 C76.34855551 22.01791848 73.7459392 22.02037767 71.14332581 22.0243988 C65.69184614 22.02891387 60.24071026 22.01308532 54.78930664 21.98510742 C48.4929645 21.95304161 42.19724168 21.95307909 35.90085548 21.97032219 C29.83418728 21.98620188 23.76780667 21.97934758 17.70112801 21.96238518 C15.12351044 21.95719973 12.54587504 21.95768954 9.96825981 21.96393013 C6.36769003 21.96937546 2.76817432 21.94902733 -0.83227539 21.92163086 C-1.89890915 21.92815674 -2.96554291 21.93468262 -4.0644989 21.94140625 C-8.50951975 21.88384761 -11.26622827 21.8458974 -15.15196228 19.56187439 C-17.76879816 16.55695443 -18.50978273 14.33483477 -19.04492188 10.38818359 C-17.98671812 6.65334682 -17.06429029 4.27454818 -14.11413574 1.70932007 C-9.4589495 -0.29449479 -5.01671072 -0.02902796 0 0 Z " transform="translate(331.044921875,181.61181640625)"/><path d="M0 0 C0.99818253 -0.00997513 1.99636505 -0.01995026 3.02479553 -0.03022766 C4.66594078 -0.03122467 4.66594078 -0.03122467 6.34024048 -0.03224182 C8.06986275 -0.0447271 8.06986275 -0.0447271 9.83442688 -0.0574646 C13.65752509 -0.08161894 17.48045289 -0.09034326 21.30361938 -0.09693909 C23.2854191 -0.10363678 25.26721882 -0.11033661 27.24901736 -0.117374 C33.48239432 -0.13884867 39.71571682 -0.14818043 45.9491272 -0.15138245 C52.37663942 -0.15501763 58.8036741 -0.18491081 65.23104036 -0.22678703 C70.75131979 -0.26149091 76.27144097 -0.2769309 81.79182875 -0.27762848 C85.08808501 -0.27842131 88.38374461 -0.28952734 91.67991257 -0.31562614 C95.35747821 -0.34242735 99.03372139 -0.33774729 102.71133423 -0.32521057 C103.8013826 -0.34004486 104.89143097 -0.35487915 106.01451111 -0.37016296 C113.37779528 -0.29854424 113.37779528 -0.29854424 117.30792236 2.59677124 C119.64731955 5.9874498 120.15518188 8.15861173 120.15518188 12.27415466 C118.64001561 16.2893453 117.74965659 17.87783819 114.15518188 20.27415466 C111.94153786 20.53421688 111.94153786 20.53421688 109.31036377 20.54830933 C108.31218124 20.55828445 107.31399872 20.56825958 106.28556824 20.57853699 C104.64442299 20.579534 104.64442299 20.579534 102.97012329 20.58055115 C101.24050102 20.59303642 101.24050102 20.59303642 99.47593689 20.60577393 C95.65283868 20.62992826 91.82991088 20.63865259 88.00674438 20.64524841 C86.02494467 20.65194611 84.04314495 20.65864593 82.06134641 20.66568333 C75.82796945 20.68715799 69.59464695 20.69648976 63.36123657 20.69969177 C56.93372435 20.70332695 50.50668967 20.73322014 44.07932341 20.77509636 C38.55904398 20.80980024 33.0389228 20.82524022 27.51853502 20.82593781 C24.22227876 20.82673064 20.92661916 20.83783667 17.6304512 20.86393547 C13.95288556 20.89073668 10.27664238 20.88605661 6.59902954 20.8735199 C5.50898117 20.88835419 4.4189328 20.90318848 3.29585266 20.91847229 C-4.07917571 20.84673933 -4.07917571 20.84673933 -7.99755859 17.91638184 C-10.18110802 14.79314248 -10.84481812 13.09001835 -10.84481812 9.27415466 C-8.72687331 2.92032026 -6.86762336 0.03678267 0 0 Z " transform="translate(322.8448181152344,285.72584533691406)"/><path d="M0 0 C0.81999985 -0.00832352 1.63999969 -0.01664703 2.48484802 -0.02522278 C5.19388587 -0.04930565 7.90268288 -0.05809258 10.61181641 -0.06469727 C12.49744743 -0.0736646 14.38307772 -0.08278647 16.26870728 -0.09205627 C20.22131072 -0.10854395 24.17382947 -0.11624604 28.12646484 -0.11914062 C33.18630695 -0.12452549 38.24535112 -0.1622107 43.30496788 -0.20788479 C47.19980767 -0.23765567 51.09445527 -0.24486418 54.98939896 -0.24586678 C56.85450522 -0.25006869 58.71961208 -0.26250187 60.58460617 -0.28338432 C63.19632083 -0.31030103 65.80618529 -0.30547327 68.41796875 -0.29296875 C69.18492569 -0.30780304 69.95188263 -0.32263733 70.74208069 -0.33792114 C74.67060176 -0.28447506 77.25558547 0.2472043 80.29824829 2.66416931 C82.83837891 5.30639648 82.83837891 5.30639648 83.90087891 8.18139648 C83.81953189 12.24874737 82.83887173 14.7721925 80.83837891 18.30639648 C76.69869602 21.60714051 72.82776961 21.7358332 67.73095703 21.69458008 C66.52758949 21.70246552 66.52758949 21.70246552 65.2999115 21.71051025 C62.65628409 21.72368046 60.01326211 21.71498288 57.36962891 21.70483398 C55.52787155 21.70685558 53.68611497 21.70976773 51.84436035 21.71353149 C47.98763393 21.71795081 44.1311162 21.71153643 40.27441406 21.69750977 C35.33462156 21.68041811 30.39531808 21.6902614 25.45554352 21.70822716 C21.65338466 21.7190756 17.85134145 21.71561378 14.04917908 21.70784378 C12.22794029 21.70584471 10.40669094 21.70829076 8.58546448 21.71528244 C6.0386276 21.72291439 3.49257905 21.71126863 0.94580078 21.69458008 C0.19552109 21.70065277 -0.55475861 21.70672546 -1.32777405 21.71298218 C-6.83973202 21.64618165 -10.0427819 20.35217225 -13.97412109 16.55639648 C-15.69030435 13.30468084 -15.54324198 10.93179486 -15.16162109 7.30639648 C-13.95176643 4.58422348 -13.01014678 2.89934438 -10.56234741 1.18882751 C-7.08010373 -0.09113508 -3.6627374 0.00315759 0 0 Z " transform="translate(348.16162109375,81.693603515625)"/><path d="M0 0 C3.60185638 1.78935906 5.65271868 4.06029761 7.0625 7.875 C6.98115298 11.94235089 6.00049282 14.46579601 4 18 C0.85618742 20.87434293 -0.70241439 21 -5 21 C-8.03785804 20.44766217 -9.32217206 19.78521863 -12 18 C-14.36659113 14.4501133 -14.66380999 12.34199986 -14.43359375 8.15625 C-13.79285558 4.96987639 -12.33398654 3.19669322 -10 1 C-6.76247585 -0.61876208 -3.49936966 -0.57132566 0 0 Z " transform="translate(465,82)"/><path d="M0 0 C2.8100346 1.79363911 4.50940468 3.01880935 6 6 C6.42071592 9.05920574 6.48514117 11.9467746 6 15 C3.81840855 17.75569447 2.12822506 19.43588747 -1 21 C-6.26883876 21.59873168 -8.8846468 20.25400021 -13 17 C-14.72869779 13.54260443 -14.48966895 9.78024432 -14 6 C-10.38599231 0.2175877 -6.68966949 -0.96115941 0 0 Z " transform="translate(260,42)"/></svg>